<svg id="C_" data-name="C++" xmlns="http://www.w3.org/2000/svg" viewBox="0 0 300 300"><defs><style>.cls-1{fill:#5c8dbc;}.cls-2{fill:#1a4674;}.cls-3{fill:#1b598e;}.cls-4{fill:#fff;}</style></defs><path class="cls-1" d="M283.45,88.2a26.52,26.52,0,0,0-3.26-13.33,25.55,25.55,0,0,0-9.66-9.4Q217.22,34.74,163.9,4c-9.58-5.53-18.86-5.33-28.37.28-14.14,8.34-85,48.91-106.06,61.13-8.69,5-12.92,12.73-12.92,22.74q0,61.82,0,123.62a26.54,26.54,0,0,0,3.12,13.07,25.38,25.38,0,0,0,9.8,9.67c21.1,12.22,91.93,52.79,106.07,61.13,9.51,5.61,18.79,5.81,28.37.28q53.29-30.76,106.64-61.43a25.42,25.42,0,0,0,9.8-9.66,26.65,26.65,0,0,0,3.12-13.07s0-82.39,0-123.6"/><path class="cls-2" d="M150.41,149.6,19.66,224.88a25.38,25.38,0,0,0,9.8,9.67c21.1,12.22,91.93,52.79,106.07,61.13,9.51,5.61,18.79,5.81,28.37.28q53.29-30.76,106.64-61.43a25.42,25.42,0,0,0,9.8-9.66L150.41,149.6"/><path class="cls-2" d="M111.68,171.9a44.13,44.13,0,0,0,76.78-.26l-38.05-22-38.73,22.3"/><path class="cls-3" d="M283.45,88.2a26.52,26.52,0,0,0-3.26-13.33L150.41,149.6l129.93,75.27a26.65,26.65,0,0,0,3.12-13.07s0-82.39,0-123.6"/><path class="cls-4" d="M276.3,155H266.15v10.15H256V155H245.84V144.83H256V134.67h10.16v10.16H276.3V155m-37.05,0H229.1v10.15H219V155H208.8V144.83H219V134.67H229.1v10.16h10.15V155"/><path class="cls-4" d="M188.46,171.64a44.13,44.13,0,1,1-.28-43.79l38.58-22.21A88.64,88.64,0,1,0,227,194l-38.53-22.32"/></svg>