<svg id="C" xmlns="http://www.w3.org/2000/svg" viewBox="0 0 300 300"><defs><style>.cls-1{fill:#004482;}.cls-2{fill:#00599c;}.cls-3{fill:#659ad2;}.cls-4{fill:#fff;}</style></defs><path class="cls-1" d="M283.27,88.2A26.53,26.53,0,0,0,280,74.87a25.4,25.4,0,0,0-9.65-9.4Q217.12,34.72,163.84,4.07c-9.57-5.54-18.84-5.34-28.34.28-14.13,8.3-84.88,48.88-106,61.11-8.68,5-12.9,12.73-12.9,22.73V211.81a26.7,26.7,0,0,0,3.13,13.07,25.23,25.23,0,0,0,9.81,9.66c21.08,12.27,91.84,52.8,106,61.14,9.5,5.61,18.77,5.81,28.35.28q53.23-30.76,106.53-61.43a25.3,25.3,0,0,0,9.81-9.66,26.7,26.7,0,0,0,3.13-13.07V88.2Z"/><path class="cls-2" d="M283.3,211.81a26.7,26.7,0,0,1-3.13,13.07,22.66,22.66,0,0,1-1.78,2.75L150,150,270.37,65.47a25.44,25.44,0,0,1,9.64,9.4,26.41,26.41,0,0,1,3.26,13.33c0,41.21,0,123.61,0,123.61Z"/><path class="cls-3" d="M280,74.87l-260.28,150a26.63,26.63,0,0,1-3.1-13.06V88.19c0-10,4.23-17.71,12.9-22.73,21.09-12.23,91.84-52.81,106-61.14C145-1.29,154.27-1.49,163.84,4q53.24,30.77,106.53,61.43A25.44,25.44,0,0,1,280,74.87Z"/><path class="cls-4" d="M155.11,199.94a49,49,0,0,1-42.92-25.3c-.44-.77-.85-1.56-1.23-2.36a49,49,0,0,1,81.92-52.45c.65.79,1.23,1.61,1.88,2.45.29.41.58.81.85,1.23l43-24.77c-1-1.69-2.14-3.32-3.28-4.91-.61-.84-1.23-1.65-1.82-2.45A98,98,0,0,0,69,196.5c.42.79.85,1.56,1.23,2.33a98,98,0,0,0,167.83,4.44L196,177.85a48.9,48.9,0,0,1-40.92,22.09Z"/></svg>