<svg id="javascript" xmlns="http://www.w3.org/2000/svg" viewBox="0 0 300 300"><defs><style>.cls-1{fill:#f0db4f;}.cls-2{fill:#323330;}</style></defs><path class="cls-1" d="M0,0H300V300H0Z"/><path class="cls-2" d="M275.45,228.45c-2.2-13.69-11.12-25.18-37.56-35.9-9.18-4.22-19.42-7.25-22.47-14.2-1.09-4-1.23-6.33-.54-8.79,2-7.95,11.46-10.43,19-8.15a20.85,20.85,0,0,1,12.2,11.32c12.95-8.39,12.92-8.33,22-14.09-3.31-5.13-5.07-7.5-7.24-9.69-7.79-8.7-18.39-13.18-35.36-12.84l-8.84,1.14c-8.47,2.14-16.54,6.59-21.28,12.55-14.2,16.11-10.15,44.32,7.13,55.92,17,12.78,42,15.69,45.23,27.64,3.11,14.63-10.75,19.36-24.52,17.68-10.16-2.11-15.8-7.28-21.9-16.66-11.24,6.5-11.24,6.5-22.79,13.15,2.74,6,5.62,8.7,10.21,13.89,21.73,22,76.11,21,85.86-12.41C274.93,247.87,277.56,240.23,275.45,228.45ZM163.09,137.88H135c0,24.24-.12,48.31-.12,72.55,0,15.43.8,29.57-1.71,33.9-4.1,8.53-14.74,7.48-19.59,5.82-4.93-2.42-7.44-5.87-10.35-10.75a14.65,14.65,0,0,0-1.6-2.57q-11.41,7-22.81,14a45.06,45.06,0,0,0,16.54,18.93c10.69,6.42,25.07,8.39,40.1,4.94,9.78-2.86,18.22-8.76,22.64-17.74,6.39-11.78,5-26,5-41.81.14-25.72,0-51.44,0-77.25Z"/></svg>