<svg id="typescript" xmlns="http://www.w3.org/2000/svg" viewBox="0 0 300 300"><defs><style>.cls-1{fill:#007acc;}.cls-2{fill:#fff;}</style></defs><path class="cls-1" d="M0,150V0H300V300H0"/><path class="cls-2" d="M65.77,150.52v12.23h39v111h27.68v-111h39v-12c0-6.75,0-12.23-.3-12.37,0-.23-23.77-.3-52.65-.3L66,138.3v12.3l-.22-.08ZM241.05,138a36.29,36.29,0,0,1,18.75,10.73c2.78,3,6.9,8.25,7.2,9.6,0,.45-13,9.22-20.85,14.1-.3.22-1.5-1.05-2.7-3-3.9-5.55-7.87-8-14.1-8.4-9-.6-15,4.12-15,12a11.85,11.85,0,0,0,1.35,5.7c2,4.12,5.78,6.6,17.4,11.7,21.45,9.22,30.75,15.3,36.38,24,6.37,9.75,7.8,25,3.52,36.52-4.8,12.53-16.5,21-33.22,23.78-5.25.9-17.25.75-22.88-.23-12-2.25-23.47-8.25-30.52-16-2.78-3-8.1-11-7.8-11.55l2.85-1.8,11.25-6.53,8.47-5,1.95,2.63c2.48,3.9,8,9.15,11.25,10.95,9.75,5,22.8,4.35,29.25-1.5a11.23,11.23,0,0,0,4-9,11.59,11.59,0,0,0-2.25-7.65c-2.4-3.3-7.2-6-20.7-12-15.53-6.6-22.13-10.8-28.28-17.25a42.73,42.73,0,0,1-8.25-15c-1.12-4.35-1.5-15-.45-19.28,3.23-15,14.55-25.5,30.75-28.5,5.25-1,17.63-.6,22.8.75l-.15.15Z"/></svg>