<svg xmlns="http://www.w3.org/2000/svg" xmlns:xlink="http://www.w3.org/1999/xlink" version="1.1" id="Layer_1" x="0px" y="0px" viewBox="0 0 200 200" enable-background="new 0 0 200 200" xml:space="preserve" class="keep-colors" style="">
<g id="desktop">
	<path opacity="0.29" fill="#EFEFEF" enable-background="new    " d="M190.9,180.4H37.3c-2,0-3.8-1.6-3.8-3.3V11.8   c0-1.8,1.8-3.3,3.8-3.3h153.6c2,0,3.8,1.6,3.8,3.3v165.3C194.7,178.9,192.9,180.4,190.9,180.4z"></path>
	<path fill="#FFFFFF" d="M188.2,129.5h-108c-1.1,0-1.8-1.1-1.8-2.2V19.5c0-1.1,0.9-2.2,1.8-2.2h108.2c0.9,0,1.8,1.1,1.8,2.2v107.6   C190,128.2,189.3,129.5,188.2,129.5z"></path>
	
		<linearGradient id="SVGID_1_" gradientUnits="userSpaceOnUse" x1="26.9746" y1="159.287" x2="87.3643" y2="169.9353" gradientTransform="matrix(2 0 0 2 20 -275)">
		<stop offset="0" style="stop-color:#6EC3F4"></stop>
		<stop offset="2.105027e-02" style="stop-color:#74BAF0"></stop>
		<stop offset="0.1529" style="stop-color:#9489D6"></stop>
		<stop offset="0.288" style="stop-color:#B05FC0"></stop>
		<stop offset="0.4244" style="stop-color:#C73DAE"></stop>
		<stop offset="0.5624" style="stop-color:#D822A1"></stop>
		<stop offset="0.7027" style="stop-color:#E50F97"></stop>
		<stop offset="0.8467" style="stop-color:#ED0491"></stop>
		<stop offset="1" style="stop-color:#EF008F"></stop>
	</linearGradient>
	<path fill="url(#SVGID_1_)" d="M188.3,91H80.2c-1.1,0-1.8-0.1-1.8-0.9l0-71.4c0-0.7,0.7-1.4,1.8-1.4h108.2c1.1,0,1.8,0.7,1.8,1.4   l0,71.9C190.2,91.4,189.4,91,188.3,91z"></path>
	
		<linearGradient id="SVGID_2_" gradientUnits="userSpaceOnUse" x1="34.0605" y1="141.3476" x2="80.4122" y2="187.6992" gradientTransform="matrix(2 0 0 2 20 -275)">
		<stop offset="0" style="stop-color:#3FA1FF;stop-opacity:0"></stop>
		<stop offset="0.1902" style="stop-color:#308EFF;stop-opacity:7.607396e-02"></stop>
		<stop offset="0.4491" style="stop-color:#217BFF;stop-opacity:0.1796"></stop>
		<stop offset="0.7158" style="stop-color:#1870FF;stop-opacity:0.2863"></stop>
		<stop offset="1" style="stop-color:#156CFF;stop-opacity:0.4"></stop>
	</linearGradient>
	<path fill="url(#SVGID_2_)" d="M78.5,17.3h110c1.1,0,1.8,0.9,1.8,2.4v71.2H80.5c-0.9,0-1.8-0.9-1.8-2.4V17.3H78.5z"></path>
	<path fill="#FFFFFF" d="M187.4,176H38.7c-1.5,0-2.6-1.1-2.6-2.2V90.9h154.1v82.9C190,174.9,188.9,176,187.4,176z"></path>
	
		<linearGradient id="SVGID_3_" gradientUnits="userSpaceOnUse" x1="39.1149" y1="164.7085" x2="71.2205" y2="196.8141" gradientTransform="matrix(2 0 0 2 20 -275)">
		<stop offset="0" style="stop-color:#6EC3F4"></stop>
		<stop offset="2.105027e-02" style="stop-color:#74BAF0"></stop>
		<stop offset="0.1529" style="stop-color:#9489D6"></stop>
		<stop offset="0.288" style="stop-color:#B05FC0"></stop>
		<stop offset="0.4244" style="stop-color:#C73DAE"></stop>
		<stop offset="0.5624" style="stop-color:#D822A1"></stop>
		<stop offset="0.7027" style="stop-color:#E50F97"></stop>
		<stop offset="0.8467" style="stop-color:#ED0491"></stop>
		<stop offset="1" style="stop-color:#EF008F"></stop>
	</linearGradient>
	<path fill="url(#SVGID_3_)" d="M78.9,90.8c30.6-73.6,54.3-58.8,111.2,0.1L78.9,90.8z"></path>
	<path fill="#EFEFEF" d="M89.7,107.4H46.5c-1.3,0-2.6-1.1-2.6-2.2V101c0-1.1,1.3-2.2,2.6-2.2h43.4c1.3,0,2.6,1.1,2.6,2.2v4.2   C92.3,106.3,91,107.4,89.7,107.4z"></path>
	<path fill="#EFEFEF" d="M89.7,124H46.5c-1.3,0-2.6-0.9-2.6-2.2v-4.2c0-1.3,1.3-2.2,2.6-2.2h43.4c1.3,0,2.6,0.9,2.6,2.2v4.2   C92.3,122.9,91,124,89.7,124z"></path>
	<path fill="#EFEFEF" d="M179.2,142.9h-77.6c-1.3,0-2.6-1.1-2.6-2.2V101c0-1.1,1.3-2.2,2.6-2.2h77.6c1.5,0,2.6,1.1,2.6,2.2v39.7   C181.7,141.8,180.5,142.9,179.2,142.9z"></path>
	<path fill="#EFEFEF" d="M66.8,129c0,1.3-1.1,2.2-2.6,2.2H46.5c-1.5,0-2.6-0.9-2.6-2.2v-4.6c0-1.3,1.1-2.2,2.6-2.2h17.8   c1.5,0,2.6,0.9,2.6,2.2V129z"></path>
	<path fill="#EFEFEF" d="M92.3,138.1c0,1.3-1.1,2.2-2.6,2.2H71.9c-1.5,0-2.6-0.9-2.6-2.2v-4.6c0-1.3,1.1-2.2,2.6-2.2h17.8   c1.5,0,2.6,0.9,2.6,2.2V138.1z"></path>
	<path fill="#EFEFEF" d="M66.8,140.1c0,1.3-1.1,2.2-2.6,2.2H46.5c-1.5,0-2.6-0.9-2.6-2.2v-4.6c0-1.3,1.1-2.2,2.6-2.2h17.8   c1.5,0,2.6,0.9,2.6,2.2V140.1z"></path>
	<circle fill="#EFEFEF" cx="38.1" cy="12.6" r="1.1"></circle>
	<circle fill="#EFEFEF" cx="43.6" cy="12.6" r="1.1"></circle>
	<circle fill="#EFEFEF" cx="49.1" cy="12.6" r="1.1"></circle>
	<path fill="#EFEFEF" d="M179.2,170.7H47c-1.3,0-2.6-0.9-2.6-2.2v-18.1c0-1.1,1.3-2.2,2.6-2.2h132c1.5,0,2.6,1.1,2.6,2.2v18.1   C181.7,169.6,180.5,170.7,179.2,170.7z"></path>
</g>
<g id="phone">
	<path fill="#F4F4F4" d="M64.8,142.9H20c-3.8,0-6.8-3.1-6.8-6.8v-101c0-3.7,2.9-6.8,6.8-6.8h45c3.8,0,6.8,3.1,6.8,6.8v101   C71.6,139.8,68.6,142.9,64.8,142.9z"></path>
	
		<linearGradient id="SVGID_4_" gradientUnits="userSpaceOnUse" x1="-8.6018" y1="200.0402" x2="30.886" y2="160.5524" gradientTransform="matrix(2 0 0 2 20 -275)">
		<stop offset="0" style="stop-color:#3FA1FF"></stop>
		<stop offset="8.395505e-02" style="stop-color:#4F8EF3"></stop>
		<stop offset="0.258" style="stop-color:#6A6CDF"></stop>
		<stop offset="0.4359" style="stop-color:#8051CF"></stop>
		<stop offset="0.6167" style="stop-color:#903EC3"></stop>
		<stop offset="0.8023" style="stop-color:#9933BC"></stop>
		<stop offset="1" style="stop-color:#9C2FBA"></stop>
	</linearGradient>
	<path fill="url(#SVGID_4_)" d="M64.8,140.1h-45c-2.6,0-4.6-2-4.6-4.6V35.6c0-2.6,2-4.6,4.6-4.6h45c2.6,0,4.6,2,4.6,4.6v99.9   C69.4,138.1,67.4,140.1,64.8,140.1z"></path>
	
		<linearGradient id="SVGID_5_" gradientUnits="userSpaceOnUse" x1="11.2793" y1="207.5432" x2="11.2793" y2="162.6175" gradientTransform="matrix(2 0 0 2 20 -275)">
		<stop offset="0" style="stop-color:#AA0071"></stop>
		<stop offset="1.890320e-02" style="stop-color:#AC0071"></stop>
		<stop offset="0.2531" style="stop-color:#C70076"></stop>
		<stop offset="0.4924" style="stop-color:#DA0079"></stop>
		<stop offset="0.7382" style="stop-color:#E5007A"></stop>
		<stop offset="1" style="stop-color:#E9007B"></stop>
	</linearGradient>
	<path opacity="0.63" fill="url(#SVGID_5_)" enable-background="new    " d="M15.7,137.6c26.4-17.9,26.7-61.3,53.6-87.1V137   c0,0-0.9,3.5-4.6,3.5c-1.3,0-45.9,0-45.9,0c-0.4,0-0.9-0.2-1.3-0.7C16.7,138.9,15.9,137.9,15.7,137.6z"></path>
</g>
</svg>