<svg id="docker_2" data-name="docker 2" xmlns="http://www.w3.org/2000/svg" viewBox="0 0 300 300"><defs><style>.cls-1{fill:#2497ed;}</style></defs><path class="cls-1" d="M165.09,42.34a2.73,2.73,0,0,1,1.82,2.9c0,7.47,0,14.94,0,22.4,0,2.12-.87,3-3,3q-12.6,0-25.18,0c-2.12,0-2.93-.84-2.93-3,0-7.37,0-14.74,0-22.11a3.29,3.29,0,0,1,1.54-3.13Z"/><path class="cls-1" d="M257.69,155.32c-3.72,0-3.71,0-5.09,3.4-5.36,13.09-11.58,25.74-19.6,37.44a126.34,126.34,0,0,1-10.61,13.66c-3.08,3.37-6.22,6.7-9.58,9.78A139.91,139.91,0,0,1,200,230.05c-16.57,12-35.19,19.27-55.06,23.56a150.36,150.36,0,0,1-18.42,2.85c-4,.35-8,.63-11.92.91-6.06.42-12.12.31-18.17.15-4.5-.11-9-.48-13.54-1-3.76-.45-7.53-.94-11.22-1.67a128.64,128.64,0,0,1-21.48-6,65.85,65.85,0,0,1-17.48-9.75,66.3,66.3,0,0,1-12.42-13.21,99.09,99.09,0,0,1-14.57-31c-1.3-4.5-2.38-9.05-3.32-13.65-.72-3.57-1-7.16-1.42-10.74a56.31,56.31,0,0,1-.84-8.93c.12-3.21-.45-6.45.19-9.63A9.59,9.59,0,0,1,8,144.09a11.89,11.89,0,0,1,2.64.14q97.79,0,195.56,0A51,51,0,0,0,226.6,140c2.4-1,2.43-1.07,1.11-3.36a40.34,40.34,0,0,1-4.86-14.49c-1.1-7.66.32-15.07,2.82-22.33a61.9,61.9,0,0,1,8-15.19c.53-.77,1.05-.8,1.87-.35,11.7,6.4,19.75,15.82,23.65,28.66a43.6,43.6,0,0,1,.93,4.29c.17.84.46,1,1.43.86a53.56,53.56,0,0,1,6.92-.71,81.35,81.35,0,0,1,8.41,0c7.7.5,15.08,2.09,21.42,6.9,1.94,1.48,2.07,1.66,1.26,3.9-4,11.11-11.8,18.56-22.45,23.22a50.12,50.12,0,0,1-14.95,3.68C260.6,155.28,259.08,155.25,257.69,155.32Z"/><path class="cls-1" d="M114.85,110.21h12.4c2.22,0,3,.77,3,3.07,0,4.49,0,9,0,13.45,0,2.94,0,5.88,0,8.82,0,2-.8,2.89-2.76,2.9q-12.89.06-25.76,0A2.56,2.56,0,0,1,99,135.67L99,113a2.47,2.47,0,0,1,2.7-2.77Z"/><path class="cls-1" d="M115.14,76.2h13a2,2,0,0,1,2.05,2.07c.11,8.06.11,16.12,0,24.19,0,1.37-1.21,2.06-3,2.06h-20.9c-1.39,0-2.78,0-4.18,0-2.32,0-3.16-.89-3.17-3.31Q99,94,99,86.73V79.27c0-2,1-3,3-3,4.38,0,8.77,0,13.15,0Z"/><path class="cls-1" d="M77.65,110.21H90.19c2.23,0,3,.81,3,3.07q0,10.91,0,21.8c0,2.65-.76,3.41-3.33,3.41q-10.72,0-21.45,0c-1.14,0-2.28.12-3.42.12-2.08,0-3-.93-3-3.13,0-6.77.07-13.54,0-20.31-.07-4.92.31-5,5.06-5C70.58,110.24,74.12,110.21,77.65,110.21Z"/><path class="cls-1" d="M77.56,104.53H65c-2.12,0-3-.86-3-3q0-11.13,0-22.25c0-2.4.71-3.08,3.14-3.08q12.39,0,24.79,0c2.45,0,3.25.78,3.25,3.19q0,11,0,22c0,2.35-.8,3.15-3.11,3.15H77.56Z"/><path class="cls-1" d="M41.23,110.21H53.77c2,0,2.95.84,2.95,2.87q0,11.13,0,22.25c0,2.4-.78,3.13-3.14,3.13-8.24,0-16.48,0-24.71,0-2.08,0-3.49-.75-3.45-3.51.1-7.3,0-14.61,0-21.92a2.52,2.52,0,0,1,2.81-2.86C32.57,110.19,36.9,110.21,41.23,110.21Z"/><path class="cls-1" d="M151.35,104.51c-4.17,0-8.35,0-12.53,0-2.63,0-3-.43-3-3q0-11.06,0-22.1c0-2.55.63-3.2,3.15-3.2q12.47,0,24.94,0c2.21,0,3,.85,3,3.09v22.1c0,2.37-.74,3.1-3.15,3.1H151.35Z"/><path class="cls-1" d="M151.33,138.49H138.89c-2.33,0-3.12-.8-3.12-3.15q0-11.07,0-22.12c0-2.26.77-3,3.06-3h25c2.35,0,3.08.75,3.08,3.14q0,11,0,22c0,2.39-.74,3.14-3.1,3.14H151.33Z"/><path class="cls-1" d="M188.06,110.21h11.81c3.34,0,3.82.57,3.8,3.94,0,7.12,0,14.25,0,21.37,0,2.08-.66,2.72-2.68,2.8-8.42.35-16.84.05-25.27.13-2.37,0-3-.64-3-3q0-11.21,0-22.41c0-2.18.65-2.83,2.84-2.84Z"/></svg>