<svg id="Express.white" xmlns="http://www.w3.org/2000/svg" viewBox="0 0 300 300"><defs><style>.cls-1{fill:#f1f2f2;}</style></defs><polygon class="cls-1" points="45.54 176.07 46.66 174.62 46.66 174.31 1.95 174.31 1.95 140.92 43.64 140.92 43.64 138.97 1.95 138.97 1.95 108.51 46.27 108.51 46.27 106.56 0 106.56 0 176.26 45.4 176.26 45.54 176.07"/><polygon class="cls-1" points="86.59 126.08 84.25 126.08 66.97 148.83 50.08 126.08 47.54 126.08 65.8 150.29 46.97 174.72 46.82 174.92 46.66 175.12 45.78 176.26 46.66 176.26 46.82 176.26 46.97 176.26 48.13 176.26 66.97 151.76 85.91 176.26 88.35 176.26 68.24 150.29 86.59 126.08"/><path class="cls-1" d="M130.38,169.53a26.73,26.73,0,0,0,4.1-8.4,37.32,37.32,0,0,0,0-20.5,25,25,0,0,0-4.25-8.3,19.66,19.66,0,0,0-6.73-5.47,20,20,0,0,0-8.94-2,21.87,21.87,0,0,0-7.07,1.12,18.8,18.8,0,0,0-5.81,3.18,21.15,21.15,0,0,0-4.4,4.83,22.37,22.37,0,0,0-2.83,6.1h-.19V126.08h-2v67.36h2V162.2h.19a20.05,20.05,0,0,0,6.93,11q5.17,4.14,13.18,4.15a19.09,19.09,0,0,0,15.87-7.81Zm-15.87,5.95q-9.17,0-14.74-6.3t-5.56-18.11a31.08,31.08,0,0,1,1.36-9.27,23.85,23.85,0,0,1,4-7.71,18.92,18.92,0,0,1,6.39-5.27,18.45,18.45,0,0,1,8.59-2,17.81,17.81,0,0,1,8.55,2,17.3,17.3,0,0,1,6.05,5.32,24.67,24.67,0,0,1,3.61,7.71,34.11,34.11,0,0,1,1.22,9.22,34.69,34.69,0,0,1-1.12,8.74,24.8,24.8,0,0,1-3.47,7.81,18.78,18.78,0,0,1-6,5.66A16.83,16.83,0,0,1,114.51,175.48Z"/><path class="cls-1" d="M158.69,125.89a18.87,18.87,0,0,0-5.81,2.93,14.9,14.9,0,0,0-3.91,4.34,19.39,19.39,0,0,0-2.14,5.32h-.2v-12.4h-1.95v50.18h1.95V147.85a27.71,27.71,0,0,1,1.17-8,19.68,19.68,0,0,1,3.62-6.89,16.94,16.94,0,0,1,6.19-4.68,17.91,17.91,0,0,1,7.45-1.46c.49,0,1,0,1.49,0v-2h-.73A23.4,23.4,0,0,0,158.69,125.89Z"/><path class="cls-1" d="M206,133.11a19.87,19.87,0,0,0-6.94-6,21.3,21.3,0,0,0-10.1-2.25,20.24,20.24,0,0,0-8.2,1.76,20.44,20.44,0,0,0-7,5.12,26,26,0,0,0-4.88,8.25A31.15,31.15,0,0,0,167,151.17a41.1,41.1,0,0,0,1.27,10.4,24.32,24.32,0,0,0,3.91,8.39,17.62,17.62,0,0,0,6.78,5.52,22.08,22.08,0,0,0,9.46,1.86H189a22,22,0,0,0,14.45-4.84q5.85-4.83,6.93-13.62h-1.95q-1.27,8.31-6.49,12.45c-3.49,2.77-7.86,4.15-13.14,4.15a20.19,20.19,0,0,1-9.07-1.85,16.42,16.42,0,0,1-6.06-5.08,22,22,0,0,1-3.46-7.57,40.28,40.28,0,0,1-1.22-9.42h42a34.92,34.92,0,0,0-1-10A25,25,0,0,0,206,133.11Zm-37,16.5a29.93,29.93,0,0,1,1.95-9.47,23.41,23.41,0,0,1,4.34-7.18,18.14,18.14,0,0,1,6.25-4.53,18.75,18.75,0,0,1,7.66-1.57,19.5,19.5,0,0,1,8.6,1.81,17.76,17.76,0,0,1,6.2,4.93,21.62,21.62,0,0,1,3.75,7.27,29.61,29.61,0,0,1,1.27,8.74Z"/><path class="cls-1" d="M253.19,169.92a12.2,12.2,0,0,0,1.61-6.45,10.76,10.76,0,0,0-1.42-5.85,11.73,11.73,0,0,0-3.71-3.71,19.45,19.45,0,0,0-5.17-2.3q-2.88-.83-5.81-1.61c-2.73-.72-5.12-1.33-7.17-1.85a43.11,43.11,0,0,1-5.72-1.86,9.76,9.76,0,0,1-4.05-3.07,9.34,9.34,0,0,1-1.51-5.72,13.51,13.51,0,0,1,.39-2.44,8.69,8.69,0,0,1,1.86-3.56,12.41,12.41,0,0,1,4.49-3.22,19.94,19.94,0,0,1,8.29-1.42,26,26,0,0,1,6.59.78,14,14,0,0,1,5.13,2.49,11.34,11.34,0,0,1,3.32,4.35,15.8,15.8,0,0,1,1.17,6.44h2q0-8.4-4.88-12.2t-13.28-3.81a23.25,23.25,0,0,0-7.9,1.17,15.79,15.79,0,0,0-5.28,3,10.88,10.88,0,0,0-2.92,4.1,11.71,11.71,0,0,0-.88,4.29,12.74,12.74,0,0,0,1.46,6.55,9.69,9.69,0,0,0,4.59,3.8,35.21,35.21,0,0,0,4.88,1.76q2.73.78,6.35,1.66l6.34,1.56a22.82,22.82,0,0,1,5.52,2.1,12,12,0,0,1,3.9,3.37,8.81,8.81,0,0,1,1.52,5.37,9.56,9.56,0,0,1-1.52,5.47,12.35,12.35,0,0,1-3.85,3.66,17.46,17.46,0,0,1-5.23,2,26.22,26.22,0,0,1-5.61.63q-8.88,0-13.62-3.95t-4.73-12.45h-2q0,9.46,5.13,13.86t15.18,4.4a29.51,29.51,0,0,0,6.49-.74,17.77,17.77,0,0,0,5.86-2.39A13.34,13.34,0,0,0,253.19,169.92Z"/><path class="cls-1" d="M294.19,174.21a13.14,13.14,0,0,0,4.2-4.29,12.2,12.2,0,0,0,1.61-6.45,10.76,10.76,0,0,0-1.42-5.85,11.73,11.73,0,0,0-3.71-3.71,19.31,19.31,0,0,0-5.17-2.3q-2.88-.83-5.81-1.61c-2.73-.72-5.12-1.33-7.17-1.85a42.49,42.49,0,0,1-5.71-1.86,9.73,9.73,0,0,1-4.06-3.07,9.34,9.34,0,0,1-1.51-5.72,13.51,13.51,0,0,1,.39-2.44,8.69,8.69,0,0,1,1.86-3.56,12.41,12.41,0,0,1,4.49-3.22,20,20,0,0,1,8.3-1.42,26.07,26.07,0,0,1,6.59.78,14,14,0,0,1,5.12,2.49,11.34,11.34,0,0,1,3.32,4.35,15.8,15.8,0,0,1,1.17,6.44h1.95q0-8.4-4.88-12.2t-13.27-3.81a23.32,23.32,0,0,0-7.91,1.17,15.64,15.64,0,0,0-5.27,3,10.8,10.8,0,0,0-2.93,4.1,11.71,11.71,0,0,0-.88,4.29,12.74,12.74,0,0,0,1.46,6.55,9.69,9.69,0,0,0,4.59,3.8,35.21,35.21,0,0,0,4.88,1.76q2.73.78,6.35,1.66l6.34,1.56a22.82,22.82,0,0,1,5.52,2.1,11.84,11.84,0,0,1,3.9,3.37,8.81,8.81,0,0,1,1.52,5.37,9.56,9.56,0,0,1-1.52,5.47,12.25,12.25,0,0,1-3.85,3.66,17.5,17.5,0,0,1-5.22,2,26.38,26.38,0,0,1-5.62.63q-8.88,0-13.62-3.95t-4.73-12.45h-1.95q0,9.46,5.12,13.86t15.18,4.4a29.51,29.51,0,0,0,6.49-.74A17.77,17.77,0,0,0,294.19,174.21Z"/><polygon class="cls-1" points="45.54 176.07 46.66 174.62 46.66 174.31 1.95 174.31 1.95 140.92 43.64 140.92 43.64 138.97 1.95 138.97 1.95 108.51 46.27 108.51 46.27 106.56 0 106.56 0 176.26 45.4 176.26 45.54 176.07"/><polygon class="cls-1" points="86.59 126.08 84.25 126.08 66.97 148.83 50.08 126.08 47.54 126.08 65.8 150.29 46.97 174.72 46.82 174.92 46.66 175.12 45.78 176.26 46.66 176.26 46.82 176.26 46.97 176.26 48.13 176.26 66.97 151.76 85.91 176.26 88.35 176.26 68.24 150.29 86.59 126.08"/><path class="cls-1" d="M130.38,169.53a26.73,26.73,0,0,0,4.1-8.4,37.32,37.32,0,0,0,0-20.5,25,25,0,0,0-4.25-8.3,19.66,19.66,0,0,0-6.73-5.47,20,20,0,0,0-8.94-2,21.87,21.87,0,0,0-7.07,1.12,18.8,18.8,0,0,0-5.81,3.18,21.15,21.15,0,0,0-4.4,4.83,22.37,22.37,0,0,0-2.83,6.1h-.19V126.08h-2v67.36h2V162.2h.19a20.05,20.05,0,0,0,6.93,11q5.17,4.14,13.18,4.15a19.09,19.09,0,0,0,15.87-7.81Zm-15.87,5.95q-9.17,0-14.74-6.3t-5.56-18.11a31.08,31.08,0,0,1,1.36-9.27,23.85,23.85,0,0,1,4-7.71,18.92,18.92,0,0,1,6.39-5.27,18.45,18.45,0,0,1,8.59-2,17.81,17.81,0,0,1,8.55,2,17.3,17.3,0,0,1,6.05,5.32,24.67,24.67,0,0,1,3.61,7.71,34.11,34.11,0,0,1,1.22,9.22,34.69,34.69,0,0,1-1.12,8.74,24.8,24.8,0,0,1-3.47,7.81,18.78,18.78,0,0,1-6,5.66A16.83,16.83,0,0,1,114.51,175.48Z"/><path class="cls-1" d="M158.69,125.89a18.87,18.87,0,0,0-5.81,2.93,14.9,14.9,0,0,0-3.91,4.34,19.39,19.39,0,0,0-2.14,5.32h-.2v-12.4h-1.95v50.18h1.95V147.85a27.71,27.71,0,0,1,1.17-8,19.68,19.68,0,0,1,3.62-6.89,16.94,16.94,0,0,1,6.19-4.68,17.91,17.91,0,0,1,7.45-1.46c.49,0,1,0,1.49,0v-2h-.73A23.4,23.4,0,0,0,158.69,125.89Z"/><path class="cls-1" d="M206,133.11a19.87,19.87,0,0,0-6.94-6,21.3,21.3,0,0,0-10.1-2.25,20.24,20.24,0,0,0-8.2,1.76,20.44,20.44,0,0,0-7,5.12,26,26,0,0,0-4.88,8.25A31.15,31.15,0,0,0,167,151.17a41.1,41.1,0,0,0,1.27,10.4,24.32,24.32,0,0,0,3.91,8.39,17.62,17.62,0,0,0,6.78,5.52,22.08,22.08,0,0,0,9.46,1.86H189a22,22,0,0,0,14.45-4.84q5.85-4.83,6.93-13.62h-1.95q-1.27,8.31-6.49,12.45c-3.49,2.77-7.86,4.15-13.14,4.15a20.19,20.19,0,0,1-9.07-1.85,16.42,16.42,0,0,1-6.06-5.08,22,22,0,0,1-3.46-7.57,40.28,40.28,0,0,1-1.22-9.42h42a34.92,34.92,0,0,0-1-10A25,25,0,0,0,206,133.11Zm-37,16.5a29.93,29.93,0,0,1,1.95-9.47,23.41,23.41,0,0,1,4.34-7.18,18.14,18.14,0,0,1,6.25-4.53,18.75,18.75,0,0,1,7.66-1.57,19.5,19.5,0,0,1,8.6,1.81,17.76,17.76,0,0,1,6.2,4.93,21.62,21.62,0,0,1,3.75,7.27,29.61,29.61,0,0,1,1.27,8.74Z"/><path class="cls-1" d="M253.19,169.92a12.2,12.2,0,0,0,1.61-6.45,10.76,10.76,0,0,0-1.42-5.85,11.73,11.73,0,0,0-3.71-3.71,19.45,19.45,0,0,0-5.17-2.3q-2.88-.83-5.81-1.61c-2.73-.72-5.12-1.33-7.17-1.85a43.11,43.11,0,0,1-5.72-1.86,9.76,9.76,0,0,1-4.05-3.07,9.34,9.34,0,0,1-1.51-5.72,13.51,13.51,0,0,1,.39-2.44,8.69,8.69,0,0,1,1.86-3.56,12.41,12.41,0,0,1,4.49-3.22,19.94,19.94,0,0,1,8.29-1.42,26,26,0,0,1,6.59.78,14,14,0,0,1,5.13,2.49,11.34,11.34,0,0,1,3.32,4.35,15.8,15.8,0,0,1,1.17,6.44h2q0-8.4-4.88-12.2t-13.28-3.81a23.25,23.25,0,0,0-7.9,1.17,15.79,15.79,0,0,0-5.28,3,10.88,10.88,0,0,0-2.92,4.1,11.71,11.71,0,0,0-.88,4.29,12.74,12.74,0,0,0,1.46,6.55,9.69,9.69,0,0,0,4.59,3.8,35.21,35.21,0,0,0,4.88,1.76q2.73.78,6.35,1.66l6.34,1.56a22.82,22.82,0,0,1,5.52,2.1,12,12,0,0,1,3.9,3.37,8.81,8.81,0,0,1,1.52,5.37,9.56,9.56,0,0,1-1.52,5.47,12.35,12.35,0,0,1-3.85,3.66,17.46,17.46,0,0,1-5.23,2,26.22,26.22,0,0,1-5.61.63q-8.88,0-13.62-3.95t-4.73-12.45h-2q0,9.46,5.13,13.86t15.18,4.4a29.51,29.51,0,0,0,6.49-.74,17.77,17.77,0,0,0,5.86-2.39A13.34,13.34,0,0,0,253.19,169.92Z"/><path class="cls-1" d="M294.19,174.21a13.14,13.14,0,0,0,4.2-4.29,12.2,12.2,0,0,0,1.61-6.45,10.76,10.76,0,0,0-1.42-5.85,11.73,11.73,0,0,0-3.71-3.71,19.31,19.31,0,0,0-5.17-2.3q-2.88-.83-5.81-1.61c-2.73-.72-5.12-1.33-7.17-1.85a42.49,42.49,0,0,1-5.71-1.86,9.73,9.73,0,0,1-4.06-3.07,9.34,9.34,0,0,1-1.51-5.72,13.51,13.51,0,0,1,.39-2.44,8.69,8.69,0,0,1,1.86-3.56,12.41,12.41,0,0,1,4.49-3.22,20,20,0,0,1,8.3-1.42,26.07,26.07,0,0,1,6.59.78,14,14,0,0,1,5.12,2.49,11.34,11.34,0,0,1,3.32,4.35,15.8,15.8,0,0,1,1.17,6.44h1.95q0-8.4-4.88-12.2t-13.27-3.81a23.32,23.32,0,0,0-7.91,1.17,15.64,15.64,0,0,0-5.27,3,10.8,10.8,0,0,0-2.93,4.1,11.71,11.71,0,0,0-.88,4.29,12.74,12.74,0,0,0,1.46,6.55,9.69,9.69,0,0,0,4.59,3.8,35.21,35.21,0,0,0,4.88,1.76q2.73.78,6.35,1.66l6.34,1.56a22.82,22.82,0,0,1,5.52,2.1,11.84,11.84,0,0,1,3.9,3.37,8.81,8.81,0,0,1,1.52,5.37,9.56,9.56,0,0,1-1.52,5.47,12.25,12.25,0,0,1-3.85,3.66,17.5,17.5,0,0,1-5.22,2,26.38,26.38,0,0,1-5.62.63q-8.88,0-13.62-3.95t-4.73-12.45h-1.95q0,9.46,5.12,13.86t15.18,4.4a29.51,29.51,0,0,0,6.49-.74A17.77,17.77,0,0,0,294.19,174.21Z"/></svg>