<svg id="Express" xmlns="http://www.w3.org/2000/svg" viewBox="0 0 300 300"><defs><style>.cls-1{fill:#f1f2f2;}</style></defs><polygon points="45.76 176.02 46.88 174.56 46.88 174.26 2.26 174.26 2.26 140.94 43.86 140.94 43.86 138.99 2.26 138.99 2.26 108.59 46.49 108.59 46.49 106.64 0.31 106.64 0.31 176.21 45.61 176.21 45.76 176.02"/><polygon points="86.72 126.13 84.39 126.13 67.14 148.83 50.28 126.13 47.75 126.13 65.97 150.29 47.18 174.67 47.03 174.87 46.88 175.07 46 176.21 46.88 176.21 47.03 176.21 47.18 176.21 48.34 176.21 67.14 151.75 86.04 176.21 88.48 176.21 68.41 150.29 86.72 126.13"/><path class="cls-1" d="M68.79,150.29l18.18-24,.37-.5H84.23l-.09.13-17,22.37L50.53,126l-.09-.13h-3.3l.37.5,18.07,24-18.4,23.88V174H2.56v-32.7h41.6v-2.57H2.56V108.9H46.79v-2.56H0v70.18H48.49l.09-.12,18.56-24.14L85.8,176.4l.09.12H89.1l-.38-.5ZM86,176.21l-18.9-24.46-18.8,24.46H46l.88-1.14.15-.2.15-.2L66,150.29,47.75,126.13h2.54l16.85,22.7,17.24-22.7h2.34L68.41,150.29l20.07,25.92ZM.31,106.65H46.49v1.94H2.26V139h41.6v1.95H2.26v33.32H46.88v.3L45.76,176l-.15.19H.31Z"/><path d="M130.42,169.49a26.71,26.71,0,0,0,4.09-8.38,37.18,37.18,0,0,0,0-20.46,24.66,24.66,0,0,0-4.24-8.28,19.48,19.48,0,0,0-6.72-5.46,19.84,19.84,0,0,0-8.91-2,21.83,21.83,0,0,0-7.07,1.12,19,19,0,0,0-5.79,3.17,21.5,21.5,0,0,0-4.39,4.82,22,22,0,0,0-2.82,6.09h-.2v-14H92.37v67.22h1.95V162.18h.2a20,20,0,0,0,6.91,11q5.17,4.14,13.16,4.14a19,19,0,0,0,15.83-7.79Zm-15.83,5.94q-9.16,0-14.71-6.29t-5.56-18.07a31,31,0,0,1,1.37-9.25,23.76,23.76,0,0,1,3.94-7.7,19,19,0,0,1,6.38-5.26,18.53,18.53,0,0,1,8.58-2,17.83,17.83,0,0,1,8.52,2,17.25,17.25,0,0,1,6,5.31,24.94,24.94,0,0,1,3.61,7.7,34,34,0,0,1,1.21,9.2,34.54,34.54,0,0,1-1.12,8.72,25,25,0,0,1-3.45,7.8,19,19,0,0,1-6,5.65A16.81,16.81,0,0,1,114.59,175.43Z"/><path class="cls-1" d="M130.46,132.17a19.82,19.82,0,0,0-6.82-5.53,20.22,20.22,0,0,0-9-2,22.17,22.17,0,0,0-7.17,1.14,19.42,19.42,0,0,0-5.89,3.22,22.2,22.2,0,0,0-6.9,9.81v-13H92.07v67.84h2.56v-30a20.18,20.18,0,0,0,6.61,9.71c3.48,2.79,8,4.21,13.35,4.21a19.35,19.35,0,0,0,16.08-7.92,27.14,27.14,0,0,0,4.14-8.48,37.54,37.54,0,0,0-.05-20.63A25.5,25.5,0,0,0,130.46,132.17Zm-29,41a20,20,0,0,1-6.91-11h-.2v31.17H92.37V126.13h1.95v14h.2a22,22,0,0,1,2.82-6.09,21.5,21.5,0,0,1,4.39-4.82,19,19,0,0,1,5.79-3.17,21.83,21.83,0,0,1,7.07-1.12,19.84,19.84,0,0,1,8.91,2,19.48,19.48,0,0,1,6.72,5.46,24.66,24.66,0,0,1,4.24,8.28,37.18,37.18,0,0,1,0,20.46,26.71,26.71,0,0,1-4.09,8.38,19,19,0,0,1-15.83,7.79Q106.6,177.28,101.43,173.14Z"/><path class="cls-1" d="M129.4,167.59a25,25,0,0,0,3.45-7.8,34.54,34.54,0,0,0,1.12-8.72,34,34,0,0,0-1.21-9.2,24.94,24.94,0,0,0-3.61-7.7,17.25,17.25,0,0,0-6-5.31,17.83,17.83,0,0,0-8.52-2,18.53,18.53,0,0,0-8.58,2,19,19,0,0,0-6.38,5.26,23.76,23.76,0,0,0-3.94,7.7,31,31,0,0,0-1.37,9.25q0,11.79,5.56,18.07t14.71,6.29a16.81,16.81,0,0,0,8.81-2.19A19,19,0,0,0,129.4,167.59Zm-29.29,1.35c-3.64-4.11-5.48-10.12-5.48-17.87A30.62,30.62,0,0,1,96,141.91a23.75,23.75,0,0,1,3.89-7.6,18.92,18.92,0,0,1,6.28-5.18,18.33,18.33,0,0,1,8.44-1.91,17.62,17.62,0,0,1,8.38,1.91,17.11,17.11,0,0,1,5.93,5.22,24.63,24.63,0,0,1,3.56,7.6,33.77,33.77,0,0,1,1.21,9.12,34.89,34.89,0,0,1-1.11,8.64,24.78,24.78,0,0,1-3.42,7.7,18.64,18.64,0,0,1-5.89,5.56,16.58,16.58,0,0,1-8.66,2.15C108.6,175.12,103.73,173,100.11,168.94Z"/><path d="M158.67,125.94a19.14,19.14,0,0,0-5.8,2.92,14.92,14.92,0,0,0-3.89,4.33,19.48,19.48,0,0,0-2.15,5.31h-.19V126.13h-1.95v50.08h1.95V147.86a27.64,27.64,0,0,1,1.17-8,19.62,19.62,0,0,1,3.6-6.87,17,17,0,0,1,6.19-4.68,17.78,17.78,0,0,1,7.43-1.45c.49,0,1,0,1.48,0v-2h-.73A23.31,23.31,0,0,0,158.67,125.94Z"/><path class="cls-1" d="M166.82,126.91v-2.25h-1a23.87,23.87,0,0,0-7.2,1,19.74,19.74,0,0,0-5.89,3,15.33,15.33,0,0,0-4,4.43A19.51,19.51,0,0,0,147,137V125.82h-2.57v50.7H147V147.86a27.31,27.31,0,0,1,1.15-7.9,19.48,19.48,0,0,1,3.55-6.77,16.82,16.82,0,0,1,6.08-4.59,17.67,17.67,0,0,1,7.3-1.42c.48,0,1,0,1.47,0l.32,0Zm-.31,0c-.5,0-1,0-1.48,0a17.78,17.78,0,0,0-7.43,1.45,17,17,0,0,0-6.19,4.68,19.62,19.62,0,0,0-3.6,6.87,27.64,27.64,0,0,0-1.17,8v28.35h-1.95V126.13h1.95V138.5h.19a19.48,19.48,0,0,1,2.15-5.31,14.92,14.92,0,0,1,3.89-4.33,19.14,19.14,0,0,1,5.8-2.92,23.31,23.31,0,0,1,7.11-1h.73Z"/><path d="M205.92,133.15a19.9,19.9,0,0,0-6.92-6A21.3,21.3,0,0,0,188.92,125a20.58,20.58,0,0,0-15.2,6.87,26,26,0,0,0-4.87,8.23A31.22,31.22,0,0,0,167,151.17a40.55,40.55,0,0,0,1.27,10.38,24.28,24.28,0,0,0,3.89,8.37,17.56,17.56,0,0,0,6.77,5.51,22,22,0,0,0,9.45,1.85h.54a22,22,0,0,0,14.42-4.82q5.85-4.83,6.92-13.59h-1.95q-1.27,8.28-6.48,12.42c-3.48,2.76-7.84,4.14-13.11,4.14a20.18,20.18,0,0,1-9.06-1.85,16.58,16.58,0,0,1-6-5.07,21.9,21.9,0,0,1-3.45-7.55,40.18,40.18,0,0,1-1.22-9.4h41.89a34.78,34.78,0,0,0-1-9.94A24.73,24.73,0,0,0,205.92,133.15Zm-37,16.46a29.8,29.8,0,0,1,2-9.45,23.29,23.29,0,0,1,4.33-7.16,18.2,18.2,0,0,1,6.24-4.53,18.81,18.81,0,0,1,7.64-1.56,19.41,19.41,0,0,1,8.58,1.8,17.68,17.68,0,0,1,6.18,4.92,21.78,21.78,0,0,1,3.76,7.26,29.8,29.8,0,0,1,1.26,8.72Z"/><path class="cls-1" d="M206.17,133a20.27,20.27,0,0,0-7-6,21.72,21.72,0,0,0-10.23-2.28,20.78,20.78,0,0,0-15.43,7,26.29,26.29,0,0,0-4.93,8.32,31.61,31.61,0,0,0-1.87,11.22A41,41,0,0,0,168,161.62a24.79,24.79,0,0,0,3.95,8.49,18,18,0,0,0,6.88,5.6,22.46,22.46,0,0,0,9.58,1.88h.54a22.27,22.27,0,0,0,14.61-4.9c3.95-3.25,6.31-7.89,7-13.79l0-.34H208l0,.26c-.83,5.41-3,9.53-6.36,12.23a20.22,20.22,0,0,1-12.92,4.07,19.86,19.86,0,0,1-8.92-1.82,16.13,16.13,0,0,1-5.93-5,21.79,21.79,0,0,1-3.41-7.45,40.28,40.28,0,0,1-1.2-9h41.88v-.3a35.34,35.34,0,0,0-1-10A25.09,25.09,0,0,0,206.17,133Zm4.67,18.59H169a40.18,40.18,0,0,0,1.22,9.4,21.9,21.9,0,0,0,3.45,7.55,16.58,16.58,0,0,0,6,5.07,20.18,20.18,0,0,0,9.06,1.85c5.27,0,9.63-1.38,13.11-4.14s5.63-6.9,6.48-12.42h1.95q-1.08,8.76-6.92,13.59a22,22,0,0,1-14.42,4.82h-.54a22,22,0,0,1-9.45-1.85,17.56,17.56,0,0,1-6.77-5.51,24.28,24.28,0,0,1-3.89-8.37A40.55,40.55,0,0,1,167,151.17a31.22,31.22,0,0,1,1.85-11.11,26,26,0,0,1,4.87-8.23,20.58,20.58,0,0,1,15.2-6.87A21.3,21.3,0,0,1,199,127.2a19.9,19.9,0,0,1,6.92,6,24.73,24.73,0,0,1,3.9,8.47A34.78,34.78,0,0,1,210.84,151.56Z"/><path class="cls-1" d="M203.87,133.63a17.68,17.68,0,0,0-6.18-4.92,19.41,19.41,0,0,0-8.58-1.8,18.81,18.81,0,0,0-7.64,1.56,18.2,18.2,0,0,0-6.24,4.53,23.29,23.29,0,0,0-4.33,7.16,29.8,29.8,0,0,0-2,9.45h39.94a29.8,29.8,0,0,0-1.26-8.72A21.78,21.78,0,0,0,203.87,133.63Zm-34.6,15.67a30.07,30.07,0,0,1,1.91-9,23.37,23.37,0,0,1,4.28-7.06,18,18,0,0,1,6.13-4.46,18.56,18.56,0,0,1,7.52-1.53,19.06,19.06,0,0,1,8.44,1.77,17.4,17.4,0,0,1,6.08,4.83,21.44,21.44,0,0,1,3.7,7.16,29.28,29.28,0,0,1,1.25,8.32Z"/><path d="M253,169.87a12.09,12.09,0,0,0,1.6-6.42,10.83,10.83,0,0,0-1.41-5.85,11.77,11.77,0,0,0-3.7-3.7,19.51,19.51,0,0,0-5.16-2.29q-2.88-.83-5.8-1.61l-7.16-1.85a43.81,43.81,0,0,1-5.7-1.85,9.67,9.67,0,0,1-4-3.07,9.28,9.28,0,0,1-1.51-5.7,13.51,13.51,0,0,1,.39-2.44,8.51,8.51,0,0,1,1.85-3.55,12.48,12.48,0,0,1,4.48-3.22,19.9,19.9,0,0,1,8.28-1.41,26,26,0,0,1,6.58.78,13.77,13.77,0,0,1,5.11,2.48,11.36,11.36,0,0,1,3.31,4.34,15.79,15.79,0,0,1,1.17,6.43h1.95q0-8.38-4.87-12.18T235.1,125a23.19,23.19,0,0,0-7.89,1.17,15.75,15.75,0,0,0-5.26,3,11,11,0,0,0-2.93,4.09,11.89,11.89,0,0,0-.87,4.29,12.59,12.59,0,0,0,1.46,6.53,9.62,9.62,0,0,0,4.58,3.8,35.08,35.08,0,0,0,4.87,1.75q2.73.78,6.33,1.66l6.33,1.56a22.74,22.74,0,0,1,5.51,2.09,12,12,0,0,1,3.9,3.36,8.86,8.86,0,0,1,1.51,5.36,9.62,9.62,0,0,1-1.51,5.46,12.21,12.21,0,0,1-3.85,3.65,17.44,17.44,0,0,1-5.21,2.05,26.22,26.22,0,0,1-5.61.63q-8.86,0-13.59-4t-4.72-12.42h-2q0,9.45,5.11,13.84t15.15,4.38a29.33,29.33,0,0,0,6.48-.73,17.93,17.93,0,0,0,5.85-2.39A13.12,13.12,0,0,0,253,169.87Z"/><path class="cls-1" d="M249.63,153.64a19.83,19.83,0,0,0-5.24-2.33c-1.92-.55-3.87-1.09-5.8-1.61l-7.17-1.85a42.06,42.06,0,0,1-5.65-1.84,9.27,9.27,0,0,1-3.92-3,9,9,0,0,1-1.45-5.51,12.91,12.91,0,0,1,.39-2.37,8.3,8.3,0,0,1,1.79-3.43A12.24,12.24,0,0,1,227,128.6a19.65,19.65,0,0,1,8.15-1.38,25.81,25.81,0,0,1,6.5.77,13.4,13.4,0,0,1,5,2.42,11.17,11.17,0,0,1,3.22,4.22,15.57,15.57,0,0,1,1.15,6.31v.31h2.56v-.31c0-5.66-1.68-9.84-5-12.42s-7.81-3.87-13.44-3.87a23.63,23.63,0,0,0-8,1.19,16.28,16.28,0,0,0-5.36,3.08,11.27,11.27,0,0,0-3,4.21,12,12,0,0,0-.9,4.4,13.1,13.1,0,0,0,1.5,6.69,10,10,0,0,0,4.73,3.92,36.33,36.33,0,0,0,4.9,1.77c1.8.51,3.93,1.07,6.35,1.66l6.33,1.55a23.09,23.09,0,0,1,5.43,2.07,11.64,11.64,0,0,1,3.8,3.27,8.59,8.59,0,0,1,1.45,5.18,9.24,9.24,0,0,1-1.46,5.28,12.07,12.07,0,0,1-3.75,3.57,17.1,17.1,0,0,1-5.12,2,26.13,26.13,0,0,1-5.54.62c-5.81,0-10.31-1.3-13.39-3.87s-4.62-6.66-4.62-12.19v-.31h-2.56v.31c0,6.37,1.76,11.1,5.22,14.07s8.62,4.46,15.35,4.46a30,30,0,0,0,6.55-.74,18.26,18.26,0,0,0,5.94-2.43,13.43,13.43,0,0,0,4.29-4.39,12.38,12.38,0,0,0,1.65-6.58,11.14,11.14,0,0,0-1.46-6A12.09,12.09,0,0,0,249.63,153.64Zm-13.17,23.64q-10,0-15.15-4.38t-5.11-13.84h2q0,8.48,4.72,12.42t13.59,4a26.22,26.22,0,0,0,5.61-.63,17.44,17.44,0,0,0,5.21-2.05,12.21,12.21,0,0,0,3.85-3.65,9.62,9.62,0,0,0,1.51-5.46,8.86,8.86,0,0,0-1.51-5.36,12,12,0,0,0-3.9-3.36,22.74,22.74,0,0,0-5.51-2.09l-6.33-1.56q-3.6-.89-6.33-1.66a35.08,35.08,0,0,1-4.87-1.75,9.62,9.62,0,0,1-4.58-3.8,12.59,12.59,0,0,1-1.46-6.53,11.89,11.89,0,0,1,.87-4.29,11,11,0,0,1,2.93-4.09,15.75,15.75,0,0,1,5.26-3A23.19,23.19,0,0,1,235.1,125q8.37,0,13.25,3.8t4.87,12.18h-1.95a15.79,15.79,0,0,0-1.17-6.43,11.36,11.36,0,0,0-3.31-4.34,13.77,13.77,0,0,0-5.11-2.48,26,26,0,0,0-6.58-.78,19.9,19.9,0,0,0-8.28,1.41,12.48,12.48,0,0,0-4.48,3.22,8.51,8.51,0,0,0-1.85,3.55,13.51,13.51,0,0,0-.39,2.44,9.28,9.28,0,0,0,1.51,5.7,9.67,9.67,0,0,0,4,3.07,43.81,43.81,0,0,0,5.7,1.85l7.16,1.85q2.93.78,5.8,1.61a19.51,19.51,0,0,1,5.16,2.29,11.77,11.77,0,0,1,3.7,3.7,10.83,10.83,0,0,1,1.41,5.85,12.09,12.09,0,0,1-1.6,6.42,13.12,13.12,0,0,1-4.19,4.29,17.93,17.93,0,0,1-5.85,2.39A29.33,29.33,0,0,1,236.46,177.28Z"/><path d="M293.9,174.16a13.22,13.22,0,0,0,4.19-4.29,12.09,12.09,0,0,0,1.6-6.42,10.83,10.83,0,0,0-1.41-5.85,11.88,11.88,0,0,0-3.7-3.7,19.43,19.43,0,0,0-5.17-2.29q-2.87-.83-5.79-1.61l-7.16-1.85a43.81,43.81,0,0,1-5.7-1.85,9.76,9.76,0,0,1-4.05-3.07,9.34,9.34,0,0,1-1.51-5.7,13.51,13.51,0,0,1,.39-2.44,8.75,8.75,0,0,1,1.85-3.55,12.62,12.62,0,0,1,4.49-3.22,19.9,19.9,0,0,1,8.28-1.41,25.85,25.85,0,0,1,6.57.78,13.81,13.81,0,0,1,5.12,2.48,11.36,11.36,0,0,1,3.31,4.34,15.79,15.79,0,0,1,1.17,6.43h1.95q0-8.38-4.87-12.18T280.21,125a23.19,23.19,0,0,0-7.89,1.17,15.75,15.75,0,0,0-5.26,3,11,11,0,0,0-2.93,4.09,11.89,11.89,0,0,0-.87,4.29,12.59,12.59,0,0,0,1.46,6.53,9.62,9.62,0,0,0,4.58,3.8,34.62,34.62,0,0,0,4.87,1.75q2.73.78,6.33,1.66l6.33,1.56a22.74,22.74,0,0,1,5.51,2.09,11.9,11.9,0,0,1,3.89,3.36,8.8,8.8,0,0,1,1.51,5.36,9.55,9.55,0,0,1-1.51,5.46,12.18,12.18,0,0,1-3.84,3.65,17.4,17.4,0,0,1-5.22,2.05,26.06,26.06,0,0,1-5.6.63q-8.86,0-13.59-4t-4.72-12.42h-1.95q0,9.45,5.11,13.84t15.15,4.38a29.47,29.47,0,0,0,6.48-.73A18,18,0,0,0,293.9,174.16Z"/><path class="cls-1" d="M298.54,157.44a12.09,12.09,0,0,0-3.8-3.8,19.83,19.83,0,0,0-5.24-2.33c-1.92-.55-3.87-1.09-5.8-1.61l-7.17-1.85a42.21,42.21,0,0,1-5.66-1.84,9.3,9.3,0,0,1-3.91-3,9,9,0,0,1-1.45-5.51,13.55,13.55,0,0,1,.38-2.37,8.55,8.55,0,0,1,1.79-3.43,12.29,12.29,0,0,1,4.38-3.13,19.65,19.65,0,0,1,8.15-1.38,25.81,25.81,0,0,1,6.5.77,13.47,13.47,0,0,1,5,2.42,11.17,11.17,0,0,1,3.22,4.22,15.58,15.58,0,0,1,1.14,6.31v.31h2.57v-.31c0-5.66-1.68-9.84-5-12.42s-7.81-3.87-13.44-3.87a23.63,23.63,0,0,0-8,1.19,16.28,16.28,0,0,0-5.36,3.08,11.27,11.27,0,0,0-3,4.21,12,12,0,0,0-.9,4.4,13,13,0,0,0,1.5,6.69,10,10,0,0,0,4.72,3.92,37,37,0,0,0,4.91,1.77c1.8.51,3.93,1.07,6.35,1.66l6.33,1.55a23.09,23.09,0,0,1,5.43,2.07,11.74,11.74,0,0,1,3.8,3.27,8.59,8.59,0,0,1,1.45,5.18,9.24,9.24,0,0,1-1.46,5.28,12.07,12.07,0,0,1-3.75,3.57,17.21,17.21,0,0,1-5.12,2,26.13,26.13,0,0,1-5.54.62c-5.81,0-10.31-1.3-13.39-3.87s-4.62-6.66-4.62-12.19v-.31H261v.31c0,6.37,1.76,11.1,5.22,14.07s8.62,4.46,15.35,4.46a30,30,0,0,0,6.55-.74,18.26,18.26,0,0,0,5.94-2.43,13.53,13.53,0,0,0,4.29-4.39,12.48,12.48,0,0,0,1.65-6.58A11.14,11.14,0,0,0,298.54,157.44ZM266.42,172.9q-5.12-4.4-5.11-13.84h1.95q0,8.48,4.72,12.42t13.59,4a26.06,26.06,0,0,0,5.6-.63,17.4,17.4,0,0,0,5.22-2.05,12.18,12.18,0,0,0,3.84-3.65,9.55,9.55,0,0,0,1.51-5.46,8.8,8.8,0,0,0-1.51-5.36,11.9,11.9,0,0,0-3.89-3.36,22.74,22.74,0,0,0-5.51-2.09l-6.33-1.56q-3.6-.89-6.33-1.66a34.62,34.62,0,0,1-4.87-1.75,9.62,9.62,0,0,1-4.58-3.8,12.59,12.59,0,0,1-1.46-6.53,11.89,11.89,0,0,1,.87-4.29,11,11,0,0,1,2.93-4.09,15.75,15.75,0,0,1,5.26-3,23.19,23.19,0,0,1,7.89-1.17q8.37,0,13.25,3.8t4.87,12.18h-1.95a15.79,15.79,0,0,0-1.17-6.43,11.36,11.36,0,0,0-3.31-4.34,13.81,13.81,0,0,0-5.12-2.48,25.85,25.85,0,0,0-6.57-.78,19.9,19.9,0,0,0-8.28,1.41,12.62,12.62,0,0,0-4.49,3.22,8.75,8.75,0,0,0-1.85,3.55,13.51,13.51,0,0,0-.39,2.44,9.34,9.34,0,0,0,1.51,5.7,9.76,9.76,0,0,0,4.05,3.07,43.81,43.81,0,0,0,5.7,1.85l7.16,1.85q2.92.78,5.79,1.61a19.43,19.43,0,0,1,5.17,2.29,11.88,11.88,0,0,1,3.7,3.7,10.83,10.83,0,0,1,1.41,5.85,12.09,12.09,0,0,1-1.6,6.42,13.22,13.22,0,0,1-4.19,4.29,18,18,0,0,1-5.85,2.39,29.47,29.47,0,0,1-6.48.73Q271.53,177.28,266.42,172.9Z"/></svg>