<svg id="jester" xmlns="http://www.w3.org/2000/svg" viewBox="0 0 300 300"><defs><style>.cls-1{fill:#c63d14;}.cls-2{fill:#fff;}</style></defs><path class="cls-1" d="M160.79,110.55l33.09-66.87,33,67.3a33.21,33.21,0,0,1,3.91-1.12l31.35-92.49H125.53l31.19,92.23A31.72,31.72,0,0,1,160.79,110.55Z"/><path class="cls-1" d="M241.67,125.79h-.18a3.36,3.36,0,0,0-1-.08h-1.13c-.52,0-.95.09-1.39.09h-.43c-.35,0-.7.09-1,.09a.48.48,0,0,1-.35.1l-1.3.26h-.1l-1.21.26c-.09,0-.26.1-.35.1-.35.08-.7.25-1,.34-.09,0-.17.1-.26.1l-1.22.51a13.16,13.16,0,0,0-1.22.52c-.09,0-.17.09-.26.09-.35.17-.7.44-1,.61,0,.09-.1.09-.1.09-.78.53-1.56,1-2.26,1.57l-.09.09a18.37,18.37,0,0,0-3,2.87,23.43,23.43,0,0,0-2.44,3.47,21.9,21.9,0,1,0,40.92,10.85v0a22.08,22.08,0,0,0-17.45-21.54C243.05,126,242.36,125.89,241.67,125.79Z"/><path class="cls-1" d="M187.63,140.16h13.56A39.21,39.21,0,0,1,212,120.1L193.89,83l-18,36.3A38.59,38.59,0,0,1,187.63,140.16Z"/><path class="cls-1" d="M239.32,186.46a38.85,38.85,0,0,1-37.6-29.09H187.13a39,39,0,0,1-37.6,29.09,34.48,34.48,0,0,1-6-.44,116.58,116.58,0,0,1-18.07,21.45,118.34,118.34,0,0,1-41.68,25.88l-3.56,1.31-3.3-1.74c-18.24-9.38-27.62-28.4-24.32-46.81a33.65,33.65,0,0,1-6-1.56c-.34.69-.61,1.3-1,2-5.56,11.37-11.38,23.27-13.46,35.94C29.92,236,29,260.79,48.08,274A45.51,45.51,0,0,0,75,282.59c18.85,0,39.16-10.07,60.7-20.75,16.85-8.34,34.22-17,52.28-21.46,6.77-1.65,13.81-2.69,20.5-3.64,12.24-1.75,23.88-3.49,33.34-9a38.39,38.39,0,0,0,18.85-26.66h0A39.43,39.43,0,0,0,259,181.07,38.42,38.42,0,0,1,239.32,186.46Z"/><circle class="cls-1" cx="58.66" cy="147.72" r="21.89" transform="translate(-87.27 84.75) rotate(-45)"/><path class="cls-1" d="M149.53,169.57a21.9,21.9,0,0,0,18.32-33.87,22.74,22.74,0,0,0-2.43-3.13l-.1-.09c-.95-.87-1.91-1.74-2.95-2.52l-.09-.09c-.35-.18-.61-.44-1-.61-.08,0-.08-.1-.17-.1-.35-.17-.69-.43-1.13-.6a4.58,4.58,0,0,0-1.13-.61h-.09c-.35-.18-.7-.27-1-.44-.09,0-.17-.09-.27-.09a3.31,3.31,0,0,0-.86-.35c-.18,0-.26-.09-.35-.09a4.09,4.09,0,0,0-1.12-.35l-1.22-.26a.6.6,0,0,0-.35-.1c-.35-.08-.61-.08-1-.17a.75.75,0,0,0-.43-.09c-.26,0-.52-.1-.87-.1h-3.39c-.34,0-.61.1-.95.1h-.35c-.35.08-.69.08-1,.17h-.26l-1.22.26,0,.06a21.87,21.87,0,0,0,5.39,43.07Z"/><path class="cls-2" d="M278.11,147.76v0A39,39,0,0,0,249,110.12L286.37,0H101.3l37.43,110.47a38.85,38.85,0,0,0-11.63,69,103.59,103.59,0,0,1-13.55,15.55,101.49,101.49,0,0,1-31.87,20.57c-10.42-7-14.94-19.45-10.85-30.57a38.93,38.93,0,1,0-39-9.81L30,179c-5.81,12-12.42,25.54-14.94,40.78-5,30.39,3.22,54.8,23.11,68.6A63.65,63.65,0,0,0,75,300c22.84,0,46-11.46,68.42-22.58,16-7.9,32.48-16.15,48.72-20.15,6-1.48,12.25-2.35,18.85-3.3,13.37-1.92,27.18-3.91,39.6-11.12a56,56,0,0,0,27.27-38.65,57.32,57.32,0,0,0-5.56-35.87A38.74,38.74,0,0,0,278.11,147.76Zm-16.91-.08v0a21.89,21.89,0,1,1-40.92-10.85,23.43,23.43,0,0,1,2.44-3.47,18.37,18.37,0,0,1,3-2.87l.09-.09c.7-.52,1.48-1,2.26-1.57,0,0,.1,0,.1-.09.34-.17.69-.44,1-.61.09,0,.17-.09.26-.09a13.16,13.16,0,0,1,1.22-.52l1.22-.51c.09,0,.17-.1.26-.1.34-.09.69-.26,1-.34.09,0,.26-.1.35-.1l1.21-.26h.1l1.3-.26a.48.48,0,0,0,.35-.1c.34,0,.69-.09,1-.09H238c.44,0,.87-.09,1.39-.09h1.13a3.36,3.36,0,0,1,1,.08h.18c.69.1,1.38.18,2.08.35A22.08,22.08,0,0,1,261.2,147.68ZM125.53,17.37H262.14l-31.35,92.49a33.21,33.21,0,0,0-3.91,1.12l-33-67.3-33.09,66.87a31.72,31.72,0,0,0-4.07-1ZM212,120.1a39.21,39.21,0,0,0-10.85,20.06H187.63a38.59,38.59,0,0,0-11.72-20.84l18-36.3Zm-67.9,6.4,0-.06,1.22-.26h.26c.35-.09.69-.09,1-.17H147c.34,0,.61-.1.95-.1h3.39c.35,0,.61.1.87.1a.75.75,0,0,1,.43.09c.35.09.61.09,1,.17a.6.6,0,0,1,.35.1l1.22.26a4.09,4.09,0,0,1,1.12.35c.09,0,.17.09.35.09a3.31,3.31,0,0,1,.86.35c.1,0,.18.09.27.09.34.17.69.26,1,.44h.09a4.58,4.58,0,0,1,1.13.61c.44.17.78.43,1.13.6.09,0,.09.1.17.1.35.17.61.43,1,.61l.09.09c1,.78,2,1.65,2.95,2.52l.1.09a22.74,22.74,0,0,1,2.43,3.13,21.9,21.9,0,1,1-23.71-9.2Zm-85.48-.67a21.89,21.89,0,1,1-21.88,21.89A21.91,21.91,0,0,1,58.66,125.83Zm202,75.3h0a38.39,38.39,0,0,1-18.85,26.66c-9.46,5.46-21.1,7.2-33.34,9-6.69.95-13.73,2-20.5,3.64-18.06,4.43-35.43,13.12-52.28,21.46-21.54,10.68-41.85,20.75-60.7,20.75A45.51,45.51,0,0,1,48.08,274c-19.11-13.2-18.16-38-15.89-51.5,2.08-12.67,7.9-24.57,13.46-35.94.34-.7.61-1.31,1-2a33.65,33.65,0,0,0,6,1.56c-3.3,18.41,6.08,37.43,24.32,46.81l3.3,1.74,3.56-1.31a118.34,118.34,0,0,0,41.68-25.88A116.58,116.58,0,0,0,143.53,186a34.48,34.48,0,0,0,6,.44,39,39,0,0,0,37.6-29.09h14.59a38.85,38.85,0,0,0,37.6,29.09A38.42,38.42,0,0,0,259,181.07,39.43,39.43,0,0,1,260.68,201.13Z"/></svg>