<svg id="kubernetes" xmlns="http://www.w3.org/2000/svg" viewBox="0 0 300 300"><defs><style>.cls-1{fill:#326ce5;}.cls-2{fill:#fff;stroke:#fff;stroke-miterlimit:8;stroke-width:0.11px;}</style></defs><path class="cls-1" d="M149,4.49a20.11,20.11,0,0,0-7.72,2L36.86,56.36A19.8,19.8,0,0,0,26.08,69.78L.51,181.61a19.29,19.29,0,0,0,2.81,15.25c.36.55.73,1.07,1.13,1.58l72.17,89.74a19.93,19.93,0,0,0,15.58,7.35H208a20.26,20.26,0,0,0,15.59-7.44l72.14-89.75a19.28,19.28,0,0,0,3.75-16.74L273.7,69.67a19.81,19.81,0,0,0-10.78-13.42L158.63,6.54a20.06,20.06,0,0,0-9.69-2Z"/><path class="cls-2" d="M150,42.6a6.61,6.61,0,0,0-6.14,6.94V51.3a51.35,51.35,0,0,0,.87,5.93,58.15,58.15,0,0,1,.61,11.34,6.78,6.78,0,0,1-2,3.24l-.14,2.64a82.63,82.63,0,0,0-11.28,1.74,80.36,80.36,0,0,0-40.81,23.3l-2.25-1.6a4.82,4.82,0,0,1-3.7-.37,58.8,58.8,0,0,1-8.41-7.59,51.07,51.07,0,0,0-4.09-4.36l-1.39-1.11a7.57,7.57,0,0,0-4.34-1.64,6,6,0,0,0-5,2.21,6.62,6.62,0,0,0,1.54,9.22l1.29,1a52.65,52.65,0,0,0,5.18,3,53,53,0,0,1,9.35,6.56,6.85,6.85,0,0,1,1.25,3.6l2,1.87a80.8,80.8,0,0,0-12.73,56.3l-2.62.75a8.74,8.74,0,0,1-2.68,2.7,58.86,58.86,0,0,1-11.19,1.84,52.34,52.34,0,0,0-6,.47l-1.66.38h-.19a6.28,6.28,0,0,0-5.36,7.08,6.38,6.38,0,0,0,1.73,3.53,6.31,6.31,0,0,0,6.42,1.54h.12l1.68-.18a50.84,50.84,0,0,0,5.61-2.05,59.42,59.42,0,0,1,10.89-3.19,6.89,6.89,0,0,1,3.58,1.27l2.81-.47a81.2,81.2,0,0,0,36,45l-1.15,2.39a6.23,6.23,0,0,1,.57,3.53,60.05,60.05,0,0,1-5.66,10.23,52.49,52.49,0,0,0-3.35,5l-.8,1.68a6.26,6.26,0,1,0,11.28,5.34l.78-1.6a50.32,50.32,0,0,0,1.79-5.71c1.66-4.1,2.56-8.5,4.83-11.21a5.08,5.08,0,0,1,2.68-1.32l1.41-2.55a80.84,80.84,0,0,0,57.61.14l1.24,2.39a4.85,4.85,0,0,1,3.19,1.92,58.38,58.38,0,0,1,4.27,10.5,54.3,54.3,0,0,0,1.82,5.72l.78,1.6A6.27,6.27,0,1,0,201.53,248l-.82-1.68a51,51,0,0,0-3.35-5,65.63,65.63,0,0,1-5.63-9.91,4.9,4.9,0,0,1,.64-3.75,21.21,21.21,0,0,1-1-2.52A81.25,81.25,0,0,0,227.16,180l2.66.47a5,5,0,0,1,3.5-1.29,68,68,0,0,1,10.89,3.18,46.66,46.66,0,0,0,5.61,2.16c.45.12,1.1.22,1.61.35h.12a6.26,6.26,0,1,0,2.79-12.16l-1.82-.43a52.34,52.34,0,0,0-6-.47A56.36,56.36,0,0,1,235.33,170a6.87,6.87,0,0,1-2.7-2.7l-2.53-.75a81.15,81.15,0,0,0-13-56.17l2.21-2a4.94,4.94,0,0,1,1.16-3.55,59,59,0,0,1,9.28-6.52,51.37,51.37,0,0,0,5.17-3l1.37-1.1a6.28,6.28,0,1,0-7.77-9.76l-1.39,1.1a54.36,54.36,0,0,0-4.09,4.36,59.16,59.16,0,0,1-8.18,7.72,6.92,6.92,0,0,1-3.79.41l-2.37,1.69a81.92,81.92,0,0,0-51.88-25c0-.94-.13-2.34-.14-2.78a5,5,0,0,1-2.05-3.12,58.69,58.69,0,0,1,.71-11.31,52,52,0,0,0,.87-5.93V49.58a6.6,6.6,0,0,0-6.14-6.93ZM142.18,91l-1.88,32.74h-.14a5.64,5.64,0,0,1-3.11,4.73,5.32,5.32,0,0,1-5.63-.51l-26.85-19a64.38,64.38,0,0,1,31-16.86c2.19-.47,4.41-.82,6.63-1.07Zm15.63,0a64.91,64.91,0,0,1,37.4,18L168.61,128a5.5,5.5,0,0,1-8.94-4.23Zm-63,30.25,24.56,21.91v.14a5.51,5.51,0,0,1-2.17,9.46v.1L85.7,161.94a64.27,64.27,0,0,1,9.13-40.68Zm110.17,0a65.45,65.45,0,0,1,9.39,40.56l-31.56-9.09v-.13a5.45,5.45,0,0,1-3.91-4.07,5.54,5.54,0,0,1,1.74-5.38L205,121.34Zm-60,23.62h10l6.14,7.8-2.23,9.75-9,4.34-9-4.34-2.12-9.75Zm32.19,26.6a5.3,5.3,0,0,1,1.26,0l32.5,5.48a64,64,0,0,1-26,32.75l-12.56-30.41a5.54,5.54,0,0,1,4.77-7.68Zm-54.58.14a5.54,5.54,0,0,1,4.53,2.51,5.45,5.45,0,0,1,.44,5.16v.12l-12.48,30.16a64.4,64.4,0,0,1-25.85-32.4l32.21-5.46a5,5,0,0,1,1.09,0Zm27.22,13.12a5.55,5.55,0,0,1,5,2.89h.12l15.88,28.66-6.35,1.87a64.64,64.64,0,0,1-35.22-1.82l15.93-28.65a5.55,5.55,0,0,1,4.69-2.77Z"/></svg>