<svg id="mui" xmlns="http://www.w3.org/2000/svg" viewBox="0 0 300 300"><defs><style>.cls-1{fill:#00b1ff;}.cls-2{fill:#0082d1;}</style></defs><g id="DMxmuW.tif"><path class="cls-1" d="M112.69,139a3,3,0,0,1-1.36-.63l-49-28.27L39,96.55A3.69,3.69,0,0,0,37.69,96v1.45q0,41.7,0,83.4c0,.45.23,1.05-.15,1.32s-.81-.3-1.18-.51L1,161.21c-.29-.17-.56-.44-1-.3V31.06a2,2,0,0,1,1.29.46L29.77,48,86.54,80.74l12.67,7.31,13.16,7.61.33.13Q112.69,117.39,112.69,139Z"/><path class="cls-1" d="M187.45,269c-3-1.77-6-3.56-9.09-5.31l-62.94-36.35c-.68-.39-1.33-.83-2-1.16a1.21,1.21,0,0,1-.72-1.3q0-20.79,0-41.58c0-.3-.07-.63.17-.89a2.48,2.48,0,0,0,.33.32l8.3,4.76,8.48,4.9,9.59,5.54c2.35,1.36,4.7,2.74,7.07,4.07a16.12,16.12,0,0,0,3.7,1.94c.08.53.58.59.93.79q9.39,5.44,18.81,10.87L186.44,225c.4.23.83.43,1.24.65q0,20.82,0,41.64c0,.49-.18,1,.23,1.45V269Z"/><path class="cls-2" d="M150.31,203.89a16.12,16.12,0,0,1-3.7-1.94c-2.37-1.33-4.72-2.71-7.07-4.07L130,192.34l-8.48-4.9-8.3-4.76a2.48,2.48,0,0,1-.33-.32c2.66-1.56,5.31-3.13,8-4.67q33-19,65.91-38a1.55,1.55,0,0,0,.94-1.53q0-20.62,0-41.24v-.79c-.47-.17-.73.14-1,.31l-48.56,28-24.43,14.11a2.22,2.22,0,0,1-1,.43q0-21.59,0-43.18l53.93-31.15,57.09-32.95a3.2,3.2,0,0,1,1.33-.61,4,4,0,0,1,.08,1.37q0,33.74,0,67.49,0,29.7,0,59.4a2.11,2.11,0,0,1-1.21,2.12q-36.31,20.91-72.61,41.89C151,203.55,150.65,203.72,150.31,203.89Z"/><path class="cls-2" d="M187.92,268.76c-.41-.43-.23-1-.23-1.45q0-20.82,0-41.64l44.92-25.93q14.35-8.28,28.71-16.55a2.3,2.3,0,0,0,1.35-2.29c-.05-13.51,0-27-.05-40.54a1.9,1.9,0,0,1,1.1-1.92q17.42-10,34.8-20a4.09,4.09,0,0,1,1.32-.66,2.14,2.14,0,0,1,.14,1.2q0,42,0,84a1.75,1.75,0,0,1-1,1.8q-39,22.41-77.85,44.92l-32.25,18.61C188.55,268.46,188.23,268.6,187.92,268.76Z"/><path class="cls-2" d="M299.86,31.05a3.28,3.28,0,0,1,.11,1.28q0,20.33,0,40.65a1.91,1.91,0,0,1-1.11,1.91c-8.73,5-17.43,10.07-26.17,15.06-2,1.14-4,2.31-6,3.4-1.3.69-2.57,1.47-3.91,2.23a1.79,1.79,0,0,1-.2-1.24V66.69c0-4.37,0-8.74,0-13.11a1.55,1.55,0,0,1,.86-1.58q17.8-10.23,35.59-20.52Z"/></g></svg>