<svg id="react" xmlns="http://www.w3.org/2000/svg" viewBox="0 0 300 300"><defs><style>.cls-1{fill:#00d8ff;}</style></defs><circle class="cls-1" cx="150" cy="149.75" r="26.79" transform="translate(-61.96 149.93) rotate(-45)"/><path class="cls-1" d="M246.66,103.06c-3.13-1.08-6.38-2.09-9.72-3,.55-2.21,1.11-4.44,1.55-6.58C245.94,57.3,240.65,29.14,224.7,20c-15.37-8.87-40.45-.3-67.09,22.88-2.5,2.17-5,4.49-7.5,6.9-1.65-1.58-3.3-3.18-4.94-4.64-27.59-24.49-54.61-34-70.55-24.75C59.27,29.22,54.15,55.23,60.94,89.89c.63,3.25,1.39,6.58,2.23,9.94-3.84,1.1-7.56,2.25-11.13,3.49C19.46,114.69,0,132,0,149.75c0,18.38,21,37,54.85,48.55,2.6.89,5.34,1.71,8.12,2.51-.9,3.64-1.69,7.23-2.35,10.73-6.44,33.91-1.13,59.44,14.22,68.28a28.44,28.44,0,0,0,14.41,3.56c15.38,0,35.13-9.42,55-26.82,2.07-1.81,4.16-3.78,6.24-5.79,2.71,2.6,5.43,5.08,8.14,7.41,19.19,16.52,37.63,25.3,52.15,25.3a27.76,27.76,0,0,0,14.1-3.51c15.91-9.21,21.48-36.72,14.53-71.8-.52-2.63-1.17-5.34-1.85-8.07,1.89-.56,3.83-1.09,5.63-1.69,35-11.61,56.77-30.25,56.77-48.66C300,132,280.06,114.56,246.66,103.06Zm-28.36-72c8.59,4.95,14.65,25.78,7.64,59.8-.4,1.93-.92,4-1.4,6a306.15,306.15,0,0,0-40.09-6.29,303.72,303.72,0,0,0-25.34-31.67c2.31-2.21,4.61-4.35,6.91-6.36C190.53,31.18,210.29,26.44,218.3,31.05ZM191.86,174.16q-7.06,12.26-14.37,23.18c-8.91.64-18.1,1-27.49,1s-18.42-.29-27.11-.85c-5.12-7.47-10.07-15.25-14.71-23.26s-8.89-16.1-12.77-24.15c3.89-8.12,8.13-16.24,12.73-24.2s9.5-15.74,14.54-23.12c9-.69,18.13-1.07,27.32-1.07s18.41.38,27.35,1.06c5,7.33,9.82,15,14.47,23.06s9,16.18,12.92,24C200.83,157.88,196.56,166,191.86,174.16Zm19.77-9.52A271.72,271.72,0,0,1,221.74,191a274,274,0,0,1-28,4.75c3.11-4.92,6.19-9.95,9.23-15.22S208.88,169.94,211.63,164.64Zm-61.1,67.74c-6.07-6.55-12.1-13.82-18-21.59,5.71.22,11.51.37,17.47.37,6.12,0,12.15-.18,18.11-.45A272.74,272.74,0,0,1,150.53,232.38Zm-44-36.35a270.47,270.47,0,0,1-27.64-4.41c2.66-8.55,6-17.44,9.75-26.46,2.69,5.18,5.46,10.36,8.44,15.49h0C100.14,185.92,103.31,191,106.54,196ZM88.62,135c-3.71-8.81-6.94-17.49-9.55-25.9,8.56-1.91,17.69-3.45,27.17-4.64-3.15,4.91-6.24,9.89-9.2,15h0C94.06,124.62,91.29,129.8,88.62,135Zm61.52-67a275.62,275.62,0,0,1,17.63,21.34c-5.87-.28-11.79-.47-17.77-.47h0c-5.94,0-11.81.18-17.63.45C138.18,81.67,144.13,74.5,150.14,68Zm52.77,51.37c-3-5.12-6-10.08-9.15-14.95,9.54,1.21,18.74,2.77,27.37,4.74A275,275,0,0,1,211.49,135C208.78,129.83,206,124.64,202.91,119.38ZM73.51,87.43C67.28,55.56,73,36.06,81,31.43a15.26,15.26,0,0,1,7.64-1.73c10.71,0,27.88,7.12,48,25,1.48,1.31,3,2.77,4.47,4.2a307.92,307.92,0,0,0-25.49,31.61,310.41,310.41,0,0,0-40,6.2C74.82,93.55,74.1,90.46,73.51,87.43ZM59,186.17c-31.73-10.84-46.18-26.48-46.18-36.42,0-9.54,13.43-23.86,43.44-34.32,3.3-1.15,6.77-2.23,10.35-3.24a308.15,308.15,0,0,0,14.65,37.86,309.83,309.83,0,0,0-14.83,38.41C63.89,187.73,61.37,187,59,186.17Zm76.86,60.74c-25.25,22.07-46,26.78-54.62,21.81-8.27-4.77-14-23.56-8-54.79.61-3.23,1.35-6.55,2.19-10a301.47,301.47,0,0,0,40.44,5.82,309.82,309.82,0,0,0,25.72,31.82C139.66,243.45,137.75,245.25,135.86,246.91Zm91-36.25c6.51,32.9.22,53.23-8.38,58.21-8.27,4.8-27.39.33-51.48-20.4q-3.74-3.22-7.54-6.89a299.92,299.92,0,0,0,25.13-32,300.84,300.84,0,0,0,40.59-6.24C225.81,205.83,226.41,208.29,226.88,210.66Zm12.32-24.42c-1.62.54-3.36,1-5.06,1.52a300.1,300.1,0,0,0-15.22-38,302.29,302.29,0,0,0,14.62-37.43c3.07.89,6.07,1.81,9,2.81,30.71,10.57,44.69,25.33,44.69,34.57C287.18,159.67,272.17,175.32,239.2,186.24Z"/></svg>