<svg id="cloudflare_2" data-name="cloudflare 2" xmlns="http://www.w3.org/2000/svg" viewBox="0 0 300 300"><defs><style>.cls-1{fill:#fff;}.cls-2{fill:#f38020;}.cls-3{fill:#faae40;}</style></defs><path class="cls-1" d="M212,215.86l1.76-4.49c4.93-12.84,18.9-23.35,31.92-23.91l24-1.41a3,3,0,0,0,2.55-1.93,2.47,2.47,0,0,0-.27-1.93,2,2,0,0,0-1.67-.88l-23-1.4c-5.72-.33-10.46-2.55-13.28-6.51-3.07-4.31-3.77-10.11-1.93-16.44l4.22-14.68a1.79,1.79,0,0,1,1.23-1.11l-.08,0-6.34-2.67a3.36,3.36,0,0,1-.23,1.36l-6.18,16.26c-4.92,12.84-19,23.35-31.91,23.91L83.57,181.4A3,3,0,0,0,81,183.33a2.43,2.43,0,0,0,.26,1.94,2,2,0,0,0,1.67.87l108.22,1.41c5.72.32,10.47,2.55,13.28,6.5,3.07,4.31,3.78,10.11,1.93,16.44l0,.06-1.5,5.37a2.61,2.61,0,0,1-2.27,1.83h72.52v-.14H213.24A1.27,1.27,0,0,1,212,215.86Z"/><path class="cls-2" d="M204.83,215.92l1.5-5.37,0-.06c1.85-6.33,1.14-12.13-1.93-16.44-2.81-4-7.56-6.18-13.28-6.5L83,186.14a2,2,0,0,1-1.67-.87,2.43,2.43,0,0,1-.26-1.94,3,3,0,0,1,2.55-1.93L192.76,180c12.92-.56,27-11.07,31.91-23.91l6.18-16.26a3.36,3.36,0,0,0,.23-1.36,3.16,3.16,0,0,0-.05-.75,71.09,71.09,0,0,0-136.7-7.3,32,32,0,0,0-51,22.39A33.52,33.52,0,0,0,44.13,164,45.42,45.42,0,0,0,0,209.41,53.92,53.92,0,0,0,.44,216a2.16,2.16,0,0,0,2.11,1.84H202.28c.1,0,.18-.08.28-.1A2.61,2.61,0,0,0,204.83,215.92Z"/><path class="cls-3" d="M240.84,141h0l-3,.09c-.13,0-.23.1-.35.13a1.79,1.79,0,0,0-1.23,1.11L232.05,157c-1.84,6.33-1.14,12.13,1.93,16.44,2.82,4,7.56,6.18,13.28,6.51l23,1.4a2,2,0,0,1,1.67.88,2.47,2.47,0,0,1,.27,1.93,3,3,0,0,1-2.55,1.93l-24,1.41c-13,.56-27,11.07-31.92,23.91L212,215.86a1.27,1.27,0,0,0,1.24,1.75h82.45A2.1,2.1,0,0,0,297.8,216a60.08,60.08,0,0,0,2.2-16A59.24,59.24,0,0,0,240.84,141Z"/></svg>