<svg id="google_cloud_copy" data-name="google cloud copy" xmlns="http://www.w3.org/2000/svg" viewBox="0 0 300 300"><defs><style>.cls-1{fill:#ea4335;}.cls-2{fill:#4285f4;}.cls-3{fill:#34a853;}.cls-4{fill:#fbbc05;}</style></defs><path class="cls-1" d="M190.9,96l9.61.16,26.1-26.1L227.87,59A117.27,117.27,0,0,0,36.69,116c2.86-2,9-.51,9-.51l52.17-8.58s2.69-4.45,4-4.18A65.17,65.17,0,0,1,190.91,96Z"/><path class="cls-2" d="M263.38,116.1A117.5,117.5,0,0,0,228,59L191,96a65.11,65.11,0,0,1,24.32,50.72v6.53a32.59,32.59,0,0,1,0,65.17H150.13L143.6,225v39.12l6.53,6.5h65.19a84.7,84.7,0,0,0,48-154.48Z"/><path class="cls-3" d="M84.78,270.63H150V218.46H84.78a32.35,32.35,0,0,1-13.42-2.91L62,218.43l-26.11,26.1-2.28,8.82a83.63,83.63,0,0,0,51.21,17.3Z"/><path class="cls-4" d="M84.78,101.09a84.74,84.74,0,0,0-51.19,152.3l37.8-37.79a32.58,32.58,0,1,1,43.08-43.09l37.8-37.79a84.64,84.64,0,0,0-67.53-33.6Z"/></svg>