<svg id="snowflake_2" data-name="snowflake 2" xmlns="http://www.w3.org/2000/svg" viewBox="0 0 300 300"><defs><style>.cls-1{fill:#29b5e8;}</style></defs><path class="cls-1" d="M46.29,71.77l60.92,36.54a17.45,17.45,0,0,0,21.5-2.82,18.83,18.83,0,0,0,5.76-13.62V18.64a17.84,17.84,0,1,0-35.66,0V60.31L64.2,39.56a17.55,17.55,0,0,0-24.06,6.1l-.4.71a19,19,0,0,0,6.56,25.4m146.46,36.44,60.92-36.53a19,19,0,0,0,6.56-25.41,17.55,17.55,0,0,0-23.76-7.19c-.24.12-.47.25-.7.39L201.63,59.94V18.54a17.84,17.84,0,1,0-35.66,0V90.33a19,19,0,0,0,2.32,11.08,17.56,17.56,0,0,0,23.76,7.21l.71-.4m-54.24,41.64a5.33,5.33,0,0,1,1.27-3.19l7.12-7.41a5.14,5.14,0,0,1,3.09-1.32h.28a4.92,4.92,0,0,1,3.07,1.32l7.12,7.41a5.28,5.28,0,0,1,1.28,3.19v.27a5.36,5.36,0,0,1-1.28,3.21l-7.12,7.39a5.13,5.13,0,0,1-3.06,1.33H150a5,5,0,0,1-3.09-1.33l-7.12-7.39a5.35,5.35,0,0,1-1.27-3.21ZM117,146.81v6.39a7.31,7.31,0,0,0,1.74,4.36l24.18,25.09a6.64,6.64,0,0,0,4.19,1.81h6.15a6.66,6.66,0,0,0,4.2-1.81l24.17-25.09a7.14,7.14,0,0,0,1.74-4.37V146.8a7.22,7.22,0,0,0-1.74-4.36l-24.17-25.08a6.66,6.66,0,0,0-4.2-1.81h-6.15a6.64,6.64,0,0,0-4.19,1.81l-24.18,25.09a7.14,7.14,0,0,0-1.74,4.37M14.77,129.57l34.5,20.69L14.77,171a19,19,0,0,0-6.56,25.41A17.56,17.56,0,0,0,32,203.55c.24-.12.47-.26.7-.4L93.6,166.62a19.41,19.41,0,0,0,0-32.71L32.67,97.37a17.56,17.56,0,0,0-24.06,6.09l-.4.71a19,19,0,0,0,6.56,25.4m182.66,20.68a18.76,18.76,0,0,0,8.95,16.29l60.95,36.53a17.55,17.55,0,0,0,24.06-6.1c.14-.23.27-.46.39-.7a19,19,0,0,0-6.55-25.41l-34.5-20.68,34.5-20.69a19,19,0,0,0,6.55-25.4A17.54,17.54,0,0,0,268,96.89c-.24.12-.47.26-.7.39l-60.95,36.55a18.74,18.74,0,0,0-8.95,16.43m-78,39.68a17.3,17.3,0,0,0-12.23,2.17L46.3,228.66a19,19,0,0,0-6.56,25.4,17.56,17.56,0,0,0,23.76,7.19c.24-.12.47-.26.7-.4l34.61-20.74v41.35a17.84,17.84,0,1,0,35.66,0V208.14a18.29,18.29,0,0,0-15-18.28m134.25,38.72-60.93-36.53a17.54,17.54,0,0,0-24.06,6.09c-.14.23-.27.47-.4.71A19.13,19.13,0,0,0,166,209.94v71.44a17.84,17.84,0,1,0,35.66,0V240.31l34.14,20.47a17.55,17.55,0,0,0,24.06-6.1c.14-.23.27-.47.4-.71a19,19,0,0,0-6.55-25.4"/></svg>