<svg id="aws_ver_3" data-name="aws ver 3" xmlns="http://www.w3.org/2000/svg" viewBox="0 0 300 300"><defs><style>.cls-1{fill:none;}.cls-2{fill:#202f3f;}.cls-3{fill:#f1f2f2;}.cls-4{fill:#ff9400;}</style></defs><path class="cls-1" d="M59.44,125.5c.21-1.25.37-2.48.48-3.66A63.42,63.42,0,0,0,49.8,121c-.74,0-1.48,0-2.21,0a18.11,18.11,0,0,0-6,1c-2.62,1-3.38,2.38-3.76,4.23a12.9,12.9,0,0,0,0,4.48,3.93,3.93,0,0,0,3.61,3.71,14.69,14.69,0,0,0,2.52.21,21.61,21.61,0,0,0,4.18-.45,16.59,16.59,0,0,0,7.92-3.51C58.65,128.58,59.23,126.8,59.44,125.5Z"/><path class="cls-2" d="M94.85,71.66q11.27,37.05,22.55,74.09c.5,1.66,1.07,3.3,1.68,4.93a3.84,3.84,0,0,0,3.67,2.72h3.11c2.87,0,5.75,0,8.63,0,.11,0,.23,0,.35,0a3.45,3.45,0,0,0,2.8-2.12,20.32,20.32,0,0,0,1-2.91q6.9-28.66,13.75-57.35c.5-2.09,1-4.19,1.51-6.28l.23,0c.14.51.3,1,.42,1.54q7.53,31.32,15.05,62.64a16,16,0,0,0,.65,2,3.86,3.86,0,0,0,3.71,2.66c2,0,3.95.06,5.92.06,1.74,0,3.49,0,5.24,0a4.16,4.16,0,0,0,4-2.8c.35-.92.69-1.85,1-2.79q12.06-38.61,24.09-77.21a13.88,13.88,0,0,0,.59-3.25c.1-1.64-.69-2.4-2.34-2.43l-2.21,0h-4.72c-1.17,0-2.34,0-3.51,0a4.07,4.07,0,0,0-4,2.77c-.31.85-.67,1.69-.9,2.57q-7.76,30-15.49,60-.76,3-1.55,5.93l-.25,0a3.52,3.52,0,0,1-.13-.43q-1.24-5.24-2.48-10.49-5.9-24.94-11.78-49.9c-.54-2.31-1-4.63-1.69-6.91-.72-2.54-2-3.48-4.65-3.54-1.33,0-2.66,0-4,0h-3.92c-.73,0-1.46,0-2.18,0a4.18,4.18,0,0,0-4.13,3.13c-.18.61-.37,1.21-.52,1.83q-3.09,13-6.16,26l-9.09,38.62c-.07.3-.19.59-.36,1.14-.17-.56-.27-.86-.35-1.16q-7.59-29.9-15.2-59.79-.87-3.44-1.94-6.83a4.06,4.06,0,0,0-4.28-3h-2.38l-8.33,0h0l-.34,0A1.86,1.86,0,0,0,94,66.92,7.92,7.92,0,0,0,94.15,69,26.82,26.82,0,0,0,94.85,71.66Z"/><path class="cls-3" d="M90.79,72.78l0,.1q11.27,37.05,22.54,74.1c.52,1.7,1.12,3.45,1.78,5.19a8,8,0,0,0,7.56,5.44l3.16,0,5.38,0,3.27,0a6,6,0,0,0,1-.09,7.63,7.63,0,0,0,6-4.67,24,24,0,0,0,1.18-3.54q5.59-23.28,11.17-46.58l.14-.57.86,3.6q5.3,22,10.6,44.09a18.72,18.72,0,0,0,.81,2.56,8.09,8.09,0,0,0,7.56,5.36c2.13,0,4.09.06,6,.06s3.62,0,5.33-.06a8.4,8.4,0,0,0,7.87-5.49c.43-1.11.78-2.11,1.08-3.06,7.76-24.86,16-51.3,24.08-77.21a17.29,17.29,0,0,0,.78-4.25,6.44,6.44,0,0,0-1.6-4.9,6.53,6.53,0,0,0-4.87-2c-.76,0-1.53,0-2.29,0h-4.72c-1.1,0-2.37,0-3.66,0A8.25,8.25,0,0,0,194,66.4c-.07.21-.15.41-.23.62a23.6,23.6,0,0,0-.79,2.34q-6.07,23.46-12.12,46.92l-.8,3.09-2.31-9.79q-4.12-17.52-8.27-35l-.39-1.68c-.4-1.77-.82-3.59-1.34-5.41-1.22-4.29-4.13-6.51-8.63-6.6-1.46,0-2.88,0-4.07,0h-3.92c-.72,0-1.57,0-2.44.06A8.37,8.37,0,0,0,140.81,67l-.1.35c-.16.51-.33,1.09-.48,1.7q-3.09,13-6.16,26.06l-4.53,19.23-.95,4.05-.37-1.44q-5.48-21.55-11-43.11c-.61-2.38-1.28-4.75-2-7a8.29,8.29,0,0,0-8.3-6H96.25c-.26,0-.5,0-.75,0a6,6,0,0,0-5.73,5.77A12.23,12.23,0,0,0,90,69.85,29.36,29.36,0,0,0,90.79,72.78Zm5.1-7.73.34,0h0l8.33,0H107a4.06,4.06,0,0,1,4.28,3q1.06,3.39,1.94,6.83,7.62,29.89,15.2,59.79c.08.3.18.6.35,1.16.17-.55.29-.84.36-1.14l9.09-38.62q3.08-13,6.16-26c.15-.62.34-1.22.52-1.83A4.18,4.18,0,0,1,149,65.08c.72,0,1.45,0,2.18,0h3.92c1.33,0,2.66,0,4,0,2.63.06,3.93,1,4.65,3.54.65,2.28,1.15,4.6,1.69,6.91q5.9,24.94,11.78,49.9,1.23,5.25,2.48,10.49a3.52,3.52,0,0,0,.13.43l.25,0q.78-3,1.55-5.93,7.74-30,15.49-60c.23-.88.59-1.72.9-2.57a4.07,4.07,0,0,1,4-2.77c1.17,0,2.34,0,3.51,0h4.72l2.21,0c1.65,0,2.44.79,2.34,2.43a13.88,13.88,0,0,1-.59,3.25q-12,38.61-24.09,77.21c-.29.94-.63,1.87-1,2.79a4.16,4.16,0,0,1-4,2.8c-1.75,0-3.5,0-5.24,0-2,0-4,0-5.92-.06a3.86,3.86,0,0,1-3.71-2.66,16,16,0,0,1-.65-2q-7.53-31.32-15.05-62.64c-.12-.52-.28-1-.42-1.54l-.23,0c-.5,2.09-1,4.19-1.51,6.28q-6.87,28.68-13.75,57.35a20.32,20.32,0,0,1-1,2.91,3.45,3.45,0,0,1-2.8,2.12c-.12,0-.24,0-.35,0-2.88,0-5.76,0-8.63,0h-3.11a3.84,3.84,0,0,1-3.67-2.72c-.61-1.63-1.18-3.27-1.68-4.93q-11.3-37.05-22.55-74.09a26.82,26.82,0,0,1-.7-2.63A7.92,7.92,0,0,1,94,66.92,1.86,1.86,0,0,1,95.89,65.05Z"/><path class="cls-4" d="M271.38,197.32a4.88,4.88,0,0,0-2.16-.51h0a6.45,6.45,0,0,0-2.43.53c-2.12.86-4.23,1.76-6.36,2.6a297.37,297.37,0,0,1-37.66,12c-9.05,2.21-18.15,4.09-27.37,5.39-4.68.66-9.37,1.31-14.07,1.83-3.84.42-7.7.72-11.56.94-4.34.25-8.68.46-13,.48h-1.83c-4.8,0-9.61-.11-14.41-.25-3.15-.1-6.3-.42-9.45-.64-2.4-.17-4.81-.28-7.2-.54q-5.52-.6-11-1.37c-4.76-.69-9.52-1.35-14.24-2.25-5.62-1.06-11.22-2.23-16.76-3.61-6.09-1.52-12.13-3.23-18.14-5A276.16,276.16,0,0,1,24.83,191.8c-6.61-3.13-13.1-6.49-19.43-10.15a11.33,11.33,0,0,0-2.13-1,3.05,3.05,0,0,0-1-.17,2.39,2.39,0,0,0-1.68.69,2.23,2.23,0,0,0-.46,2.43A3.75,3.75,0,0,0,1,184.94a21.86,21.86,0,0,0,1.67,1.51,210.6,210.6,0,0,0,22.45,17.47,217.51,217.51,0,0,0,35.27,19.4,220.16,220.16,0,0,0,32,11.09c5.84,1.53,11.72,2.85,17.68,3.84,2.68.45,5.35,1,8.05,1.33,3,.41,6.1.72,9.17,1,3.61.34,7.22.69,10.84.89s7.51.22,11.64.33c1.95-.07,4.28-.19,6.61-.23q6.23-.11,12.41-.76c2.59-.27,5.2-.42,7.77-.78q6.56-.93,13.08-2.08a221.22,221.22,0,0,0,27.67-6.81,198.84,198.84,0,0,0,39.12-16.85,143.23,143.23,0,0,0,14.62-9.48,8,8,0,0,0,1.9-1.91A3.72,3.72,0,0,0,271.38,197.32Z"/><path class="cls-2" d="M27.83,153.81a30.83,30.83,0,0,0,11.36,2,46.19,46.19,0,0,0,6.41-.47,35.58,35.58,0,0,0,20.83-10.64c.83-.84,1.64-1.7,2.54-2.65.4.77.76,1.46,1.11,2.16a34.46,34.46,0,0,0,5.09,7.82c1.17,1.3,2.24,1.95,3.41,1.95a5.55,5.55,0,0,0,3-1.09c1.88-1.23,3.76-2.48,5.62-3.75a8.32,8.32,0,0,0,1.5-1.34,2.7,2.7,0,0,0,.59-2.86c-.31-.81-.7-1.59-1.08-2.37-1.29-2.62-2.67-5.24-3.13-8.15a54.18,54.18,0,0,1-.77-8.23c-.09-10.72,0-21.44-.06-32.15a42.6,42.6,0,0,0-1.88-12.62c-2.3-7.25-6.75-12.6-13.84-15.62A39.25,39.25,0,0,0,56.91,63c-2.44-.24-4.87-.37-7.31-.37a63,63,0,0,0-8.44.56A64.51,64.51,0,0,0,23,68.32,26.14,26.14,0,0,0,19.89,70a3.09,3.09,0,0,0-1.54,2.16,36.7,36.7,0,0,0-.09,8.51,2,2,0,0,0,0,.24,1.75,1.75,0,0,0,1.8,1.5l.29,0a8.07,8.07,0,0,0,2-.43c2.42-.87,4.8-1.84,7.23-2.65a54.52,54.52,0,0,1,17.26-3.17c.53,0,1,0,1.58,0a34.81,34.81,0,0,1,9.23,1.41,12.8,12.8,0,0,1,8.73,8.49,22.51,22.51,0,0,1,1.28,6.25c.14,3.72.17,7.43.24,11.15a3.24,3.24,0,0,1-.11.56c-.34,0-.62-.07-.89-.12-2.9-.57-5.8-1.22-8.72-1.7a76.83,76.83,0,0,0-12.36-1.1,53.33,53.33,0,0,0-7,.45,34.71,34.71,0,0,0-13.5,4.48,25.5,25.5,0,0,0-11.78,14.47,30.44,30.44,0,0,0-.63,15.59C14.72,144.64,19.68,150.63,27.83,153.81ZM30,124.73a13.21,13.21,0,0,1,8.72-10.12,26,26,0,0,1,8.58-1.6c.84,0,1.68-.05,2.52-.05a77.74,77.74,0,0,1,17.82,2.19c.11,0,.21.1.48.21,0,1.88.09,3.74,0,5.59a58.48,58.48,0,0,1-.68,5.88,16.75,16.75,0,0,1-6,10,24.65,24.65,0,0,1-11.61,5.31,29.39,29.39,0,0,1-5.75.6,22.52,22.52,0,0,1-3.91-.33A11.9,11.9,0,0,1,29.91,132,20.64,20.64,0,0,1,30,124.73Z"/><path class="cls-3" d="M26.29,157.74a34.93,34.93,0,0,0,12.9,2.31,49.68,49.68,0,0,0,7-.52,39.5,39.5,0,0,0,21.75-10.39,34.65,34.65,0,0,0,4.1,5.72c.75.83,3,3.35,6.55,3.35a9.53,9.53,0,0,0,5.25-1.77c1.7-1.11,3.71-2.43,5.71-3.81a12.52,12.52,0,0,0,2.28-2,6.88,6.88,0,0,0,1.36-7.15c-.34-.88-.74-1.7-1.09-2.42l-.15-.29-.36-.73a23.49,23.49,0,0,1-2.39-6.23,50.07,50.07,0,0,1-.71-7.61c0-5.89,0-11.89,0-17.69,0-4.73,0-9.63,0-14.45a46.79,46.79,0,0,0-2.07-13.86c-2.76-8.69-8.21-14.82-16.2-18.23a43,43,0,0,0-12.82-3.16c-2.63-.26-5.23-.39-7.72-.39a68.07,68.07,0,0,0-9,.59,69.22,69.22,0,0,0-19.34,5.5,33.2,33.2,0,0,0-3.6,2,7.25,7.25,0,0,0-3.48,5.16,40.89,40.89,0,0,0-.1,9.49,4.91,4.91,0,0,0,.17.93,5.92,5.92,0,0,0,5.86,4.61l.71,0a12.66,12.66,0,0,0,3-.66c1-.36,2-.74,3-1.12,1.42-.54,2.76-1,4.12-1.5a49.9,49.9,0,0,1,15.93-3q.7,0,1.41,0a30.39,30.39,0,0,1,8.12,1.22,8.65,8.65,0,0,1,6,5.82,18.24,18.24,0,0,1,1.06,5.07c.08,2.13.12,4.31.16,6.45-1.56-.32-3.15-.63-4.75-.89a81.33,81.33,0,0,0-13-1.16,58,58,0,0,0-7.57.49,38.78,38.78,0,0,0-15.12,5.06A29.67,29.67,0,0,0,9.51,119.3,34.48,34.48,0,0,0,8.78,137,27.5,27.5,0,0,0,26.29,157.74ZM13.53,120.55a25.5,25.5,0,0,1,11.78-14.47,34.71,34.71,0,0,1,13.5-4.48,53.33,53.33,0,0,1,7-.45,76.83,76.83,0,0,1,12.36,1.1c2.92.48,5.82,1.13,8.72,1.7.27,0,.55.07.89.12a3.24,3.24,0,0,0,.11-.56c-.07-3.72-.1-7.43-.24-11.15a22.51,22.51,0,0,0-1.28-6.25,12.8,12.8,0,0,0-8.73-8.49,34.81,34.81,0,0,0-9.23-1.41c-.53,0-1.05,0-1.58,0a54.52,54.52,0,0,0-17.26,3.17c-2.43.81-4.81,1.78-7.23,2.65a8.07,8.07,0,0,1-2,.43l-.29,0A1.75,1.75,0,0,1,18.3,81a2,2,0,0,1,0-.24,36.7,36.7,0,0,1,.09-8.51A3.09,3.09,0,0,1,19.89,70,26.14,26.14,0,0,1,23,68.32a64.51,64.51,0,0,1,18.16-5.16,63,63,0,0,1,8.44-.56c2.44,0,4.87.13,7.31.37a39.25,39.25,0,0,1,11.57,2.85c7.09,3,11.54,8.37,13.84,15.62A42.6,42.6,0,0,1,84.2,94.06c0,10.71,0,21.43.06,32.15a54.18,54.18,0,0,0,.77,8.23c.46,2.91,1.84,5.53,3.13,8.15.38.78.77,1.56,1.08,2.37a2.7,2.7,0,0,1-.59,2.86,8.32,8.32,0,0,1-1.5,1.34c-1.86,1.27-3.74,2.52-5.62,3.75a5.55,5.55,0,0,1-3,1.09c-1.17,0-2.24-.65-3.41-1.95a34.46,34.46,0,0,1-5.09-7.82c-.35-.7-.71-1.39-1.11-2.16-.9,1-1.71,1.81-2.54,2.65A35.58,35.58,0,0,1,45.6,155.36a46.19,46.19,0,0,1-6.41.47,30.83,30.83,0,0,1-11.36-2c-8.15-3.18-13.11-9.17-14.93-17.67A30.44,30.44,0,0,1,13.53,120.55Z"/><path class="cls-3" d="M40.09,142.46a22.52,22.52,0,0,0,3.91.33,29.39,29.39,0,0,0,5.75-.6,24.65,24.65,0,0,0,11.61-5.31,16.75,16.75,0,0,0,6-10,58.48,58.48,0,0,0,.68-5.88c.12-1.85,0-3.71,0-5.59-.27-.11-.37-.18-.48-.21A77.74,77.74,0,0,0,49.8,113c-.84,0-1.68,0-2.52.05a26,26,0,0,0-8.58,1.6A13.21,13.21,0,0,0,30,124.73a20.64,20.64,0,0,0-.07,7.31A11.9,11.9,0,0,0,40.09,142.46ZM44,134.74a14.69,14.69,0,0,1-2.52-.21,3.93,3.93,0,0,1-3.61-3.71,12.9,12.9,0,0,1,0-4.48c.38-1.85,1.14-3.2,3.76-4.23a18.11,18.11,0,0,1,6-1c.73,0,1.47,0,2.21,0a63.42,63.42,0,0,1,10.12.83c-.11,1.18-.27,2.41-.48,3.66s-.79,3.08-3.34,5.28a16.59,16.59,0,0,1-7.92,3.51A21.61,21.61,0,0,1,44,134.74Z"/><path class="cls-2" d="M232.13,107.18a34.81,34.81,0,0,0,12.12,6.06c5.24,1.64,10.48,3.25,15.71,4.94a25.23,25.23,0,0,1,7.32,3.56,9.34,9.34,0,0,1,3.61,5.14,11.06,11.06,0,0,1-5.07,12.68,21.06,21.06,0,0,1-7.8,2.65,42.89,42.89,0,0,1-6.59.48c-1.62,0-3.25-.08-4.89-.21a56.08,56.08,0,0,1-17.2-4.15,33,33,0,0,0-3.87-1.47,4.38,4.38,0,0,0-1.16-.18c-1.34,0-2.09.88-2.27,2.56a3.71,3.71,0,0,0,0,.47c0,1.74,0,3.48,0,5.22a5.37,5.37,0,0,0,2.79,4.91,31.05,31.05,0,0,0,4.12,2.06c7.51,2.83,15.28,4.25,25.66,4.31h.3a41.87,41.87,0,0,0,16.18-3.67c10.31-4.63,16.46-12.32,16.7-24a21.47,21.47,0,0,0-8.1-17.92,33.28,33.28,0,0,0-11-5.67c-4.95-1.62-9.93-3.16-14.9-4.75a39.65,39.65,0,0,1-9.2-4,9.81,9.81,0,0,1-5-7.53c-.4-4.13.94-8.08,5.08-10.27a19.32,19.32,0,0,1,4.53-1.69,35,35,0,0,1,8.25-.93,58.15,58.15,0,0,1,7.43.54,44.21,44.21,0,0,1,12.47,3.63,13.18,13.18,0,0,0,2.81.91,2.32,2.32,0,0,0,.51.05,1.94,1.94,0,0,0,1.87-1.5,4,4,0,0,0,.21-1.28c0-1.86,0-3.72,0-5.57a4.85,4.85,0,0,0-2.27-4.2,23,23,0,0,0-3.71-2.08,49.16,49.16,0,0,0-9.67-2.74,58.71,58.71,0,0,0-11.18-1.12,50.18,50.18,0,0,0-7.22.51A32.9,32.9,0,0,0,232,70c-5.43,4.5-8.7,10.15-8.93,17.35A23.64,23.64,0,0,0,232.13,107.18Z"/><path class="cls-3" d="M229.44,110.42A39.21,39.21,0,0,0,243,117.26l4.36,1.36c3.72,1.16,7.56,2.36,11.31,3.57a21,21,0,0,1,6.12,2.94,5,5,0,0,1,2,2.86,6.86,6.86,0,0,1-3.18,8,16.7,16.7,0,0,1-6.27,2.09,37.35,37.35,0,0,1-5.94.44c-1.43,0-2.92-.07-4.54-.2A51.86,51.86,0,0,1,231,134.44l-.46-.19a32.48,32.48,0,0,0-3.91-1.45,8.56,8.56,0,0,0-2.29-.33c-2.66,0-5.94,1.65-6.46,6.3a7.42,7.42,0,0,0-.06.94v1.5c0,1.24,0,2.53,0,3.82a9.58,9.58,0,0,0,5,8.5l.27.14a32.5,32.5,0,0,0,4.42,2.17c8.23,3.11,16.59,4.52,27.12,4.59h.32a46.13,46.13,0,0,0,17.91-4c12.46-5.61,18.92-14.95,19.18-27.75.18-8.73-3.06-15.88-9.64-21.27A37.16,37.16,0,0,0,270,101c-3-1-6-1.91-8.87-2.83l-6.05-1.92a36,36,0,0,1-8.23-3.57c-2.46-1.56-2.91-3.16-3-4.38-.43-4.4,2-5.7,2.85-6.13a15.68,15.68,0,0,1,3.55-1.33,30.7,30.7,0,0,1,7.26-.8,52.38,52.38,0,0,1,6.88.5,39.31,39.31,0,0,1,11.29,3.3A17.71,17.71,0,0,0,279.3,85a6.48,6.48,0,0,0,1.38.15,6.18,6.18,0,0,0,5.88-4.4,8.8,8.8,0,0,0,.42-2.56q0-2,0-4V72.54a9.06,9.06,0,0,0-4.15-7.69,25.26,25.26,0,0,0-4.43-2.46,52.85,52.85,0,0,0-10.49-3,62.62,62.62,0,0,0-12-1.2,54.88,54.88,0,0,0-7.83.56,37.29,37.29,0,0,0-18.78,8c-6.68,5.54-10.19,12.42-10.46,20.46C218.56,96.53,222.12,104.34,229.44,110.42Zm-6.36-23.07c.23-7.2,3.5-12.85,8.93-17.35a32.9,32.9,0,0,1,16.7-7.08,50.18,50.18,0,0,1,7.22-.51,58.71,58.71,0,0,1,11.18,1.12,49.16,49.16,0,0,1,9.67,2.74,23,23,0,0,1,3.71,2.08,4.85,4.85,0,0,1,2.27,4.2c0,1.85,0,3.71,0,5.57a4,4,0,0,1-.21,1.28,1.94,1.94,0,0,1-1.87,1.5,2.32,2.32,0,0,1-.51-.05,13.18,13.18,0,0,1-2.81-.91,44.21,44.21,0,0,0-12.47-3.63,58.15,58.15,0,0,0-7.43-.54,35,35,0,0,0-8.25.93,19.32,19.32,0,0,0-4.53,1.69c-4.14,2.19-5.48,6.14-5.08,10.27a9.81,9.81,0,0,0,5,7.53,39.65,39.65,0,0,0,9.2,4c5,1.59,10,3.13,14.9,4.75a33.28,33.28,0,0,1,11,5.67,21.47,21.47,0,0,1,8.1,17.92c-.24,11.67-6.39,19.36-16.7,24a41.87,41.87,0,0,1-16.18,3.67h-.3c-10.38-.06-18.15-1.48-25.66-4.31a31.05,31.05,0,0,1-4.12-2.06,5.37,5.37,0,0,1-2.79-4.91c0-1.74,0-3.48,0-5.22a3.71,3.71,0,0,1,0-.47c.18-1.68.93-2.56,2.27-2.56a4.38,4.38,0,0,1,1.16.18,33,33,0,0,1,3.87,1.47,56.08,56.08,0,0,0,17.2,4.15c1.64.13,3.27.21,4.89.21a42.89,42.89,0,0,0,6.59-.48,21.06,21.06,0,0,0,7.8-2.65,11.06,11.06,0,0,0,5.07-12.68,9.34,9.34,0,0,0-3.61-5.14,25.23,25.23,0,0,0-7.32-3.56c-5.23-1.69-10.47-3.3-15.71-4.94a34.81,34.81,0,0,1-12.12-6.06A23.64,23.64,0,0,1,223.08,87.35Z"/><path class="cls-4" d="M291.78,214a73.08,73.08,0,0,0,7.4-21c.43-2.27.57-4.61.79-6.92.06-.62,0-3.61,0-4.47a4.48,4.48,0,0,0-3.2-4.49c-.79-.26-1.55-.62-2.34-.84a48.68,48.68,0,0,0-11-1.65c-.82,0-1.64-.05-2.46-.05-2.42,0-4.84.12-7.25.21a55.59,55.59,0,0,0-11.33,1.7,47.23,47.23,0,0,0-16,6.88,7.61,7.61,0,0,0-1.51,1.32,2,2,0,0,0-.56,2.16,1.54,1.54,0,0,0,1.64.85h.4c.59,0,1.18-.06,1.77-.13,1-.11,1.95-.27,2.93-.37,2.71-.26,5.42-.54,8.13-.74,3.81-.29,7.61-.77,11.27-.77h.14a67.86,67.86,0,0,1,7.73.6,15,15,0,0,1,5.12,1.38,4.43,4.43,0,0,1,2.74,3.48,23.47,23.47,0,0,1,.14,5,62.86,62.86,0,0,1-2.68,11.63c-1.95,6.26-4.31,12.37-6.74,18.46a5.82,5.82,0,0,0-.45,1.58c-.11,1.13.45,1.77,1.42,1.77a2.8,2.8,0,0,0,.55-.06,5.52,5.52,0,0,0,2.52-1.48A49.75,49.75,0,0,0,291.78,214Z"/></svg>