<svg id="django" xmlns="http://www.w3.org/2000/svg" viewBox="0 0 300 300"><defs><style>.cls-1{fill:#092e20;}.cls-2{fill:#fff;}</style></defs><circle class="cls-1" cx="150" cy="150" r="150"/><path class="cls-2" d="M129.79,60h32.28V209.24c-16.54,3.14-28.66,4.39-41.91,4.39-39.37,0-59.88-17.79-59.88-51.93,0-32.88,21.77-54.23,55.49-54.23a51.56,51.56,0,0,1,14,1.67Zm0,75.14a31.92,31.92,0,0,0-10.89-1.68c-16.33,0-25.76,10.06-25.76,27.64,0,17.18,9,26.6,25.58,26.6a74.72,74.72,0,0,0,11.09-.84Zm83.54-25.34v74.75c0,25.76-1.88,38.11-7.53,48.79-5.24,10.26-12.15,16.75-26.39,23.87L149.47,243c14.24-6.7,21.15-12.56,25.58-21.57,4.6-9.25,6.07-19.9,6.07-47.95V109.77ZM181.09,60.15h32.24V93.23H181.09Z"/></svg>