<svg id="Flask_logo_2" data-name="Flask logo 2" xmlns="http://www.w3.org/2000/svg" viewBox="0 0 300 300"><defs><style>.cls-1{fill:#f1f2f2;}.cls-2{fill:#231f20;}</style></defs><path class="cls-1" d="M299.05,260.19c-1.42-1.9-4.24-2.14-6.54-2.14-1.42,0-2.94.11-4.55.22s-3.37.23-5,.23c-4.52,0-7.31-.93-9.06-3l-.27-.33-.27.33c-2.25,2.65-4.57,3.88-7.28,3.88a20.83,20.83,0,0,1-5.94-1.22,24.37,24.37,0,0,0-7.21-1.42,12.46,12.46,0,0,0-3.7.54c-.75,0-1.44,0-2.05,0-3.33,0-4.28-.56-4.49-1-.4-.89,1.17-2.69,2.84-4.59,2.28-2.6,5.13-5.85,5-9v-.17l-.13-.1a7.72,7.72,0,0,0-4.74-1.7c-5.37,0-10.75,5.78-15.06,10.42a48,48,0,0,1-4.68,4.65A160.59,160.59,0,0,1,186,243.47c-12.2-6.33-27.65-15.36-38.88-29l-3.11-3.67c-10-11.72-20.3-23.84-24.79-38.8-8.08-21-9.57-43.72-11-65.66-.43-6.62-.88-13.47-1.51-20.16.2-3.69,1-8,5.87-8,2.58,0,5.75,1.13,9.1,2.32,3.55,1.27,7.22,2.58,10.42,2.58a7.68,7.68,0,0,0,5-1.55l.19-.15-.07-.23c-2.4-8-12.49-11.6-21.39-14.82-2.58-.93-5-1.82-7.07-2.74l-.06,0h-.06c-4.15-.32-7-2.26-10-4.32s-6.13-4.23-10.74-4.64c0-6-5.43-6.88-11.23-7.76-4.55-.68-9.26-1.39-12-4.55,1.07-2.86,1.15-4.89.26-6.19-1.09-1.59-3.45-1.79-5.38-1.79-1.14,0-2.4.08-3.62.16s-2.53.17-3.73.17c-2.81,0-4.48-.48-5.41-1.56-.78-.91-1-2.26-.76-4.12,2.19-4.57,1.43-7.48.4-9.11-1.45-2.32-4.42-3.7-7.93-3.7-3.9,0-7.16,1.67-8.29,4.27-.81,1.86-.9,5,3.3,9.57l0,0,0,0c2.49,1.41,3.79,2.85,3.87,4.27.13,2.4-3.18,4.77-6.09,6.85-2.73,2-5.31,3.81-5.27,5.72a3,3,0,0,0,1.61,2.35A8.57,8.57,0,0,1,27.7,57c-1.37,2.49-4.05,4.12-7.54,4.59-5.89.55-8.36,4.88-8.22,7.78A3.46,3.46,0,0,0,15.52,73a5.62,5.62,0,0,0,.7,0C9.12,75.29,3.39,80.4,1.1,86.46a16.47,16.47,0,0,0,1.72,15.11c4.2,9.51,6.64,19.91,9,30,1.64,7,3.33,14.24,5.62,21.17a240.07,240.07,0,0,0,40.21,72.14c7.25,10.57,17.53,18.54,27.47,26.25,1.49,1.16,3,2.31,4.45,3.47l.28.22.09-.11c10.58,6.84,23.14,14.31,36.29,18.13,19.78,7.24,41.1,8.8,61.71,10.3q4.62.33,9.22.69a247.18,247.18,0,0,0,43.48-3.61,22,22,0,0,0,2.3.12c4.76,0,9-1.52,13.15-3,3.85-1.36,7.48-2.65,11.27-2.65a15.34,15.34,0,0,1,6.95,1.65l.22.11.18-.16c3.86-3.39,8.71-4.12,13.41-4.83,4-.59,7.74-1.16,11-3.21l.11-.07,0-.13C300.31,264.37,300.25,261.79,299.05,260.19ZM25.91,69.32A33.35,33.35,0,0,1,18,72.44a14.45,14.45,0,0,0,3.17-1.82A37.48,37.48,0,0,1,25.91,69.32Z"/><path class="cls-2" d="M67.8,76.81c15.74-3-5.77-5-10.38.55C60.35,78.69,63.57,73.64,67.8,76.81Z"/><path class="cls-2" d="M47.89,81.71l2,1.84C60.59,84.42,48.29,76.58,47.89,81.71Z"/><path class="cls-2" d="M94.72,71.45c10-1.52,1.63-6.15-1.28,1.54C94.43,75.4,94.93,72.27,94.72,71.45Z"/><path class="cls-2" d="M46.72,88.51C58,96.2,44.77,75.88,41.76,87,43.16,86.69,45.43,87.5,46.72,88.51Z"/><path class="cls-2" d="M112.94,179.75l1,1.61C116.06,174.37,108.54,169.9,112.94,179.75Z"/><path class="cls-2" d="M273.61,255.74c-8,9.38-14.73-1-24.34,1.9-16.46.83,1.25-7.37.83-14.91-8.72-6.7-18.58,9.19-24.17,13.46a161,161,0,0,1-40-12.39c-14.42-7.5-28.56-16.42-39-29.08-10.91-12.93-23-26-28-42.6-10.53-27.42-9.84-57.08-12.53-85.88,1-19.49,21.51,2.1,30.48-4.95C133.81,71.19,117.56,68,108.59,64c-8.64-.65-11.8-8.34-21-9C88,44.16,70.64,50.11,64.31,42.4c6.16-16.07-20.66.39-18.57-13.51,8.72-18.09-26.67-15-11.92.9,14.17,8-14,13.89-5.76,19.26,2.62,5.63-.2,11.89-7.86,12.92C9,63,10.09,78.32,21,70.29c12.21-3.88,2.1,1.55-3.65,2.66C4.42,76.69-4.37,89.59,3.13,101.37c7.17,16.24,9.07,34.34,14.64,51.24a241.58,241.58,0,0,0,40.15,72c8.31,12.1,20.46,20.69,31.86,29.66l.07-.09c11.23,7.28,23.69,14.56,36.47,18.27,22.68,8.3,47,9.09,70.86,11a248.1,248.1,0,0,0,43.44-3.61c12.91,1.39,22.18-9.58,33.84-3.82,7.13-6.27,17.37-3.58,24.43-8.07C304.1,250.19,281,264.43,273.61,255.74ZM133.26,80.48c-1.49.43-1.24-1.81-2.35-2.18C118.86,72.15,136.74,74.3,133.26,80.48Zm-67.86-28c-8-4.15,1.6,5-5.09,4.85-3.62.05-10.31-7.8-8.1-11.64C56.11,47.36,64.09,48.16,65.4,52.44Zm-13.77-12-2.18-.11C48.87,35.75,62.43,39,51.63,40.39ZM35.7,27.93c-6.24-3,.07-13.9,6.57-8.73C50,29.6,28.09,18,35.7,27.93Zm14.49,24.2c9.09,6.87-5,0-10.76,4.3C30.41,57.35,49.3,51.35,50.19,52.13ZM52.88,61c5.2.11,28.13-10.24,20.44-1.08,6.46,7.7,2.35,5.9-2.08.92C73.5,65,70.37,74,64.65,66.34c-4.08-7.6-6.81-3.81-3.87,1.23-5.62-6.52-18-3-27.25.12C27.06,67,50.32,62.15,52.88,61ZM20.79,88.45c-11.12-4-11.28,7.75-10.13,14.41l-.12.06H9.78C-.42,89.79,10.93,84.44,23.83,82.75c-2.46,6.06,3.52,8,9.26,9.12,9.24-2.58-6.12-4.23.91-6.66,3.86-.79-12.32-4,1.15-5.77,13.83-2.32,26.27-7.72,40-10.57C87.47,66.41,99.18,65,110.36,66,114.93,71.2,107,80,98.83,80.61c-10,3.74-20.09,4.67-29.35,5.9C57.6,85,49.07,95.75,36.77,97,40.05,91,34.08,95,27.83,94.66,31.07,106.9,5.94,91.39,20.79,88.45Zm19.53,17.79c9.88-.34,6.71,5.48,1.09,5.86-.13.39-5.14-1.19-3.06-2.57C53.77,111.49,25,104.65,40.32,106.24Zm-9.54,19.09-1.31-.47C19.06,120.1,37.22,122.81,30.78,125.33ZM28,152.77C24,151.4,24.21,145.25,22.39,142,17.33,126.5,29.11,148,28,152.77Zm-3-2.16c6.33,7.58,3.84,11.78,10.4,21.14h0c-8.44-5.33-10-18.05-15.4-26.27C14.08,131.51,23.73,144.76,24.93,150.61Zm61.24,95.63v.07c-5.08-1.08-8.56-6.38-12.17-9.84-10.7-6.78-17.64-18.16-23.51-29.05C42.94,196,33.85,184.55,28.68,171.18c-6.06-13.88,3.82,1.11,5.22,6.24,3.18,10.14,13.17,16,14.18,22.7,11.08,6.39,5.4,16.78,14.69,19.71,4.12-2,4.55,12.55,13.32,9.5-4.88,2.28,2,5,4.5,9.23C86.12,237.74,98.27,250.73,86.17,246.24ZM63.41,163.48c6-2.52,2.52,11.74,8.29,13.47,11.36,14.84-7.82.53-14.31-1-.2-.34-5.54-1.91-2.94-2.5-2.07-2.13-6.68-9.83,3.85-4.68C66.7,173,67.41,170.16,63.41,163.48ZM82,196.07c-5.78-.1-7.51-.56.72,4.48-3.24,2.62,6.52,4.68,3.17,8.57,9.92,7.68-1.81,1.89-6-1.28v0c-2.51-1.74-12.71-5.2-11.13-7.49,12.05,6.33,3.06-.24-2.24-4.44,9.71,2.37-7.78-7.2,1.47-4.68,2.74.66-4.15-5.67,4.9-1.06-8.91-7.21,6.23-1.23,10-.48C83.41,192,72.1,191.58,82,196.07Zm2.73,28.23h.07l-2.46-.53c-10.16-8.07,4.75-5.65,11.36-2.13C108.15,224.94,90.53,228.76,84.72,224.3Zm28.13,14.9h0l-1.64-.64-1.87-.85C100.9,230.22,127.05,243.21,112.85,239.2Zm.27-7.55-2.27-.75C100.84,224.63,123.37,233,113.12,231.65Zm-3.42-10c-8.85-2,3.23-2.83,5.49.5C130.44,224.64,114.22,225.7,109.7,221.69Zm-1.91,2.16c7,1,7,4.06-.64,2.14h-.06c-1.37-.83-3.63-.78-4.27-2.56C92.25,216.68,104.06,220.37,107.79,223.85Zm40.47,52c-13.67-1.71-25.87-7.41-38.35-12.79h0c-1.8-.86-3.51-1.92-5.23-2.93-8.57-4.75-7.51-5.72.83-1,3,2.36,23.85,10.91,13.9,5.26-4.31-1.08-28.47-14.36-12.54-8.54,12.74,7.87,27.43,12,41,18.09,12,1.58,24.6,4.75,36.37,2.22,9.81,4.91,20-1.27,29.85,3.18C192.35,283.48,170,278.83,148.26,275.82Zm5.09-5.82c15,5.58-9,1.85-13.91-1.28C125.53,262.84,150.83,270.53,153.35,270Zm21.9-8.68c7.34-6.29,7.59-3.23,7.53,1.94-6.56,7.23-2.67-3-6.73,1h0C172.32,267.22,173.22,262.45,175.25,261.32ZM193.88,267l-1.24.4C192.3,263.2,200.75,262.46,193.88,267Zm11,3.06-1.84,1.2C199.57,268.73,213.69,263.6,204.89,270ZM216,263.94c-6,3.24-11.72-2.08-17.48-1.8-8.11-2.79-20.95-11.36-29.65-5.54-12,7.54,6.16-8.4-3.59-1.27-9.87,11.84-6.72-7.31-16.3-1.65-.71-1.81-8.56-2.33-2.54-5.54-5.43-.33-2-.68-.08-5-2.33-.48-15.3,0-20.41-4.29-6-7.81,1.05-4.63,7.32-3.49-10,1.76,3.47,7.52,10.2,4.32-3-1.36-6.48-7.76-14.47-13.53-11.16-6.8-20.37-10-31.94-15.37-12.54-7.44,2.81-2.55,7.15,1.3,12.51,5.51,7.59-7.73.34-11.19-6.89.27-9.35-6.52-14-8,8.71.64,13.81-3.66,3.51-13-10.64-12.43,4.43,9.33-1.77,6.54-2.82-3.66-.71-9-9.7-10.89-.1,3.44-1.21,8.75-3.17,1.53-2.5.43-5.38,3.17-7.43-4.26C74,164.35,63.63,162.43,62,157c8.9,5.68,12.92,1.2,6.62-5-4.35-7.57-4.95-1.62-7.36-.56-8.74,8.92-.81-15.39-4.68-8.38-3.91-.11-1.67,4.31-1.6,9.77-12.76-3.23,3.09,6.7,6.77,12.15-5.82-6.11-4.83,4.57-9.69-.5-1.66-4.49-1.89-11.58-10-12.83,9.22-3.2-5.52-9.67-4.24-10,5.28-4.79,5.9-11.31,12.3-1.06-8-.65-.19,13.27,1.73,9.12-.31-7.13,3.29-14.64-8.86-17.93-3.58,4.81-9.75-9.41-2.6-6.4-.94-9.46,11.1-3.9,10.33-8,6.26-2.73-7.51-11.51-.14-15C56.28,105.81,71,97,61.1,95.69c6.18-.06,11.14,2.64,11.78-3.62,5,1.07,18.53,5.4,6.25-1.37,3.92-2,12.2-3.62,17-3.69,11.81-9.18,9.38,14.91,6.66,21.65,4.48-3,3.64,14.2,2.18,20.65,2.44-3.3,3.45,5.33.71,11.4.23-1.05,6-1.84,1.75,5.36-3.21-7.06-4.58,14.34-2.53,4.74,5.65-9.1,4.17-.49,5.9,3.52,1.1,8.33,4.81,16,5.93,23.39,5.22,5.27-2.24,1.77-2.21,8.82,1.69-2.07,8.63,2.91,8.58,10.3.58-11.72,1.19-2.75,7,.29,4.78,7.77,8.4,14.89,15.45,21.22,5.54,6.42-.34,1.94,2.07,5.86,5.9,10.45,19.56,16.5,31.38,19.23,5.17,6.75,13,13.48,23.49,10.4C193.53,259.34,227.55,260.84,216,263.94Zm13.6.16h0l-2.73-.17-1.7-.26c.9-6.72,20-1.45,27.7-1.25C250.57,267.34,236,262.8,229.64,264.1Zm51.25.16c-7.89-1.86,3.57-1.79,5.94-2.16C301.94,262.1,287.84,264.29,280.89,264.26Z"/><path class="cls-2" d="M62.4,116.33v.06c2.73,2.74,12.33,7.65,4.65.92,4.78-1-.65-2.52-3.54-4.82C56.8,102.37,64.51,113.24,62.4,116.33Z"/><path class="cls-2" d="M135.92,213.88c-4-6.27-3,.94.66,4.81C142.47,225.7,138,214.72,135.92,213.88Z"/><path class="cls-2" d="M53,129.61c-7.82-6.58,2.41,3.25-.76,3.12-8.25-6.09-4.89-1.75-.23,2.88h0C57.11,143.1,61.27,131.11,53,129.61Z"/><path class="cls-2" d="M54.78,128.51,57,130.74C71.79,134.81,41.25,116.45,54.78,128.51Z"/><path class="cls-2" d="M102.93,142.05l0,1.49C106,135.88,103.48,131.72,102.93,142.05Z"/><path class="cls-2" d="M65,122.84c14.91,6.16-1.33-4-6.5-2.91C59.91,121.84,63.37,121,65,122.84Z"/><path class="cls-2" d="M57.2,124.52c1.09,2.3,3.53,2.5,5.57,3C82.48,136.66,48.5,112.52,57.2,124.52Z"/><path class="cls-2" d="M101.25,101.5c-2,10.46-4,6.1-1.16-1.7-.67-10-6.76,6.12-4.07,10.86C100.46,117.75,104.9,93.28,101.25,101.5Z"/><path class="cls-2" d="M94,140.82c-2-14.51-6.31,6.71-.45,10.22h0c1.81,5.19,3.71,3.08,4.37-2.82C93.7,148.31,99.78,139,94,140.82Z"/><path class="cls-2" d="M72.75,143.61c5.57,13.83-3.51-1.74-4.45-6.45-1,2.89,2.2,12.37,4.17,15.6h0c5,7.7,2.74-4.23,8.24,3.46-3-6.75,1.43-3.08.79-6C80.12,147.37,66.6,132.08,72.75,143.61Z"/><path class="cls-2" d="M51.35,208c2.21,3.95.42-1.82,0,0Z"/><path class="cls-2" d="M177,244.34c.07,1.74,2.31-.16,0,0Z"/><path class="cls-2" d="M130.76,209.23c1.32,4.51-.15-5.76,0,0Z"/><path class="cls-2" d="M126.75,203.84c5.85,2.54-4.65-9,0,0Z"/><path class="cls-2" d="M78.11,170.27c1.28,4.67,2.73-.73,0,0Z"/><path class="cls-2" d="M116.83,191.25c2,5.27,1.66-6.29,0,0Z"/><path class="cls-2" d="M89.47,172.23c4,3.2-1.92-3.47,0,0Z"/><path class="cls-2" d="M60,144.14c2.86,5.15.52-7.52,0,0Z"/><path class="cls-2" d="M65.59,146.08c4.48,7.9,2.69-5.67,0,0Z"/><path class="cls-2" d="M59.1,135.42c1.43,2.64,2.7-2.69,0,0Z"/><path class="cls-2" d="M63.48,136.82c5,3.22-4.1-7.69,0,0Z"/><path class="cls-2" d="M107.81,159.49c1.2,4.38.64-6.4,0,0Z"/><path class="cls-2" d="M105.24,157c.07,3.21.65-2.73,0,0Z"/><path class="cls-2" d="M84.83,139.16c1.84,1.67-.83-10.1,0,0Z"/><path class="cls-2" d="M105.8,152.61c.13,3.81,1.62-5.75,0,0Z"/><path class="cls-2" d="M100.74,138.75c1.28,6.89,1.46-11.77,0,0Z"/><path class="cls-2" d="M58,105.39c.85,2.15,1.61-.69,0,0Z"/><path class="cls-2" d="M68,111.35c4.74,6,2.58-5.41,0,0Z"/><path class="cls-2" d="M96.21,127c.53,3,0-2.07,0,0Z"/><path class="cls-2" d="M94.58,123.43c3.65,5.11-3.84-9.66,0,0Z"/><path class="cls-2" d="M92.18,117c2.24,5-.66-4,0,0Z"/><path class="cls-2" d="M100,86.67c.26,1.73,1.18-1.44,0,0Z"/><path class="cls-2" d="M42.35,81.62c2.32,1.82,4.36-3.25,0,0Z"/><path class="cls-2" d="M55.48,78.66c.81,2.87,2.77-3.24,0,0Z"/><path class="cls-2" d="M85.48,73c14,5.38-.7-15.15,0,0Z"/></svg>