<svg id="go" xmlns="http://www.w3.org/2000/svg" viewBox="0 0 300 300"><defs><style>.cls-1{fill:#00acd7;}</style></defs><path class="cls-1" d="M22.64,127.9c-.59,0-.73-.3-.44-.73l3.07-4a2.08,2.08,0,0,1,1.6-.73H79c.58,0,.73.44.44.88L77,127.17a2.24,2.24,0,0,1-1.46.87l-52.87-.14ZM.58,141.33c-.58,0-.73-.29-.43-.73l3.06-3.94a2.1,2.1,0,0,1,1.61-.73h66.6c.59,0,.88.44.73.88L71,140.31a1.28,1.28,0,0,1-1.32.88Zm35.35,13.44c-.58,0-.73-.44-.44-.87l2-3.66a1.94,1.94,0,0,1,1.46-.87H68.21c.59,0,.88.44.88,1l-.3,3.5a1.09,1.09,0,0,1-1,1l-31.84-.14Zm151.62-29.5L163,131.69c-2.2.59-2.34.73-4.24-1.46a19.45,19.45,0,0,0-6.87-5.55c-9.2-4.53-18.11-3.21-26.43,2.19-9.94,6.43-15,15.93-14.9,27.76s8.18,21.32,19.72,22.93c9.93,1.31,18.26-2.19,24.83-9.64,1.31-1.61,2.48-3.36,3.94-5.4H130.87c-3.06,0-3.79-1.9-2.77-4.39,1.9-4.53,5.4-12.12,7.45-15.92a4,4,0,0,1,3.65-2.34h53.17c-.3,3.95-.3,7.89-.88,11.84a62.18,62.18,0,0,1-12,28.62c-10.51,13.88-24.24,22.5-41.62,24.84-14.32,1.9-27.61-.88-39.3-9.64A45.86,45.86,0,0,1,80,163.1c-1.9-15.92,2.78-30.24,12.42-42.8,10.37-13.58,24.1-22.2,40.9-25.27,13.73-2.48,26.87-.87,38.7,7.16A45.82,45.82,0,0,1,189,122.79c.88,1.31.29,2-1.46,2.48Z"/><path class="cls-1" d="M235.89,206c-13.29-.29-25.41-4.1-35.64-12.86A45.77,45.77,0,0,1,184.48,165c-2.63-16.5,1.9-31.11,11.83-44.11,10.66-14,23.52-21.32,40.9-24.39,14.9-2.63,28.92-1.17,41.63,7.45,11.54,7.89,18.69,18.55,20.59,32.57,2.49,19.72-3.21,35.79-16.79,49.52a67,67,0,0,1-35.06,18.69c-3.94.73-7.89.88-11.68,1.32Zm34.77-59a43.37,43.37,0,0,0-.44-4.82c-2.63-14.46-15.92-22.64-29.8-19.43-13.58,3.07-22.35,11.69-25.56,25.42a24.06,24.06,0,0,0,13.44,27.61,26.81,26.81,0,0,0,23.81-.88c11.54-6,17.82-15.34,18.55-27.9Z"/></svg>