<svg id="java" xmlns="http://www.w3.org/2000/svg" viewBox="0 0 300 300"><defs><style>.cls-1{fill:#5382a1;}.cls-2{fill:#e76f00;}</style></defs><path class="cls-1" d="M110.63,232s-11.46,6.66,8.16,8.92c23.77,2.71,35.92,2.32,62.12-2.64a108.07,108.07,0,0,0,16.51,8.06C138.69,271.52,64.5,244.9,110.63,232m-7.18-32.85s-12.85,9.52,6.78,11.55c25.4,2.62,45.45,2.84,80.15-3.85a35.53,35.53,0,0,0,12.35,7.53c-71,20.76-150.09,1.64-99.28-15.23"/><path class="cls-2" d="M164,143.45c14.47,16.66-3.8,31.65-3.8,31.65s36.74-19,19.87-42.72c-15.76-22.15-27.85-33.16,37.58-71.11,0,0-102.7,25.65-53.65,82.18"/><path class="cls-1" d="M241.62,256.3s8.49,7-9.34,12.4c-33.9,10.27-141.09,13.37-170.87.41-10.7-4.66,9.37-11.12,15.69-12.48a41.11,41.11,0,0,1,10.35-1.16c-11.91-8.38-76.95,16.47-33,23.58,119.74,19.42,218.27-8.74,187.21-22.75M116.14,165.13s-54.52,13-19.31,17.65c14.87,2,44.51,1.54,72.13-.77,22.56-1.9,45.22-5.95,45.22-5.95a96,96,0,0,0-13.72,7.34C145.1,198,38.13,191.19,68.93,176.29c26-12.59,47.21-11.16,47.21-11.16M214,219.8c56.29-29.25,30.26-57.35,12.1-53.56a42.3,42.3,0,0,0-6.44,1.72,10.31,10.31,0,0,1,4.81-3.7c35.94-12.64,63.57,37.26-11.6,57A4.91,4.91,0,0,0,214,219.8"/><path class="cls-2" d="M180,0s31.17,31.18-29.57,79.13c-48.7,38.47-11.1,60.4,0,85.45-28.43-25.65-49.29-48.23-35.29-69.24C135.68,64.49,192.6,49.53,180,0"/><path class="cls-1" d="M121.67,299.06c54,3.46,137-1.92,139-27.49,0,0-3.78,9.7-44.65,17.39-46.11,8.68-103,7.67-136.72,2.1,0,0,6.91,5.72,42.41,8"/></svg>