<svg id="nodejs.2" xmlns="http://www.w3.org/2000/svg" xmlns:xlink="http://www.w3.org/1999/xlink" viewBox="0 0 300 300"><defs><style>.cls-1,.cls-4{fill:#5fa04e;}.cls-2{fill:none;}.cls-3{fill:#f1f2f2;}.cls-4{fill-rule:evenodd;}.cls-5{fill:url(#linear-gradient);}.cls-6{fill:url(#linear-gradient-2);}.cls-7{fill:url(#linear-gradient-3);}</style><linearGradient id="linear-gradient" x1="123.36" y1="185.47" x2="98.12" y2="134.31" gradientTransform="matrix(1, 0, 0, -1, 0, 302)" gradientUnits="userSpaceOnUse"><stop offset="0" stop-color="#3f873f"/><stop offset="0.33" stop-color="#3f8b3d"/><stop offset="0.64" stop-color="#3e9638"/><stop offset="0.93" stop-color="#3da92e"/><stop offset="1" stop-color="#3dae2b"/></linearGradient><linearGradient id="linear-gradient-2" x1="107.77" y1="158.73" x2="178.17" y2="210.43" gradientTransform="matrix(1, 0, 0, -1, 0, 302)" gradientUnits="userSpaceOnUse"><stop offset="0.14" stop-color="#3f873f"/><stop offset="0.4" stop-color="#52a044"/><stop offset="0.71" stop-color="#64b749"/><stop offset="0.91" stop-color="#6abf4b"/></linearGradient><linearGradient id="linear-gradient-3" x1="80.04" y1="162.44" x2="143.98" y2="162.44" gradientTransform="matrix(1, 0, 0, -1, 0, 302)" gradientUnits="userSpaceOnUse"><stop offset="0.09" stop-color="#6abf4b"/><stop offset="0.29" stop-color="#64b749"/><stop offset="0.6" stop-color="#52a044"/><stop offset="0.86" stop-color="#3f873f"/></linearGradient></defs><path class="cls-1" d="M148.45,241.67a5.7,5.7,0,0,1-2.77-.73l-8.76-5.23c-1.31-.73-.65-1-.26-1.13a15.59,15.59,0,0,0,4-1.79.62.62,0,0,1,.66.07l6.72,4a.85.85,0,0,0,.79,0l26.28-15.31a.77.77,0,0,0,.4-.73V190.31a.77.77,0,0,0-.4-.73l-26.28-15.24a.79.79,0,0,0-.79,0l-26.28,15.24a.84.84,0,0,0-.4.73v30.55a.84.84,0,0,0,.4.73l7.18,4.18c3.89,2,6.32-.33,6.32-2.65V193a.8.8,0,0,1,.79-.79h3.36a.8.8,0,0,1,.79.79v30.16c0,5.23-2.83,8.28-7.77,8.28-1.51,0-2.7,0-6.06-1.66l-6.92-4a5.61,5.61,0,0,1-2.76-4.84V190.38a5.6,5.6,0,0,1,2.76-4.84l26.28-15.31a5.85,5.85,0,0,1,5.54,0l26.28,15.31a5.6,5.6,0,0,1,2.76,4.84v30.55a5.61,5.61,0,0,1-2.76,4.84l-26.28,15.31A7.4,7.4,0,0,1,148.45,241.67Z"/><path class="cls-1" d="M156.62,220.66c-11.53,0-13.9-5.3-13.9-9.81a.8.8,0,0,1,.79-.79h3.43a.67.67,0,0,1,.72.66c.53,3.51,2,5.24,9,5.24,5.54,0,7.91-1.26,7.91-4.24,0-1.73-.66-3-9.29-3.85-7.18-.73-11.66-2.32-11.66-8.08,0-5.37,4.48-8.55,12-8.55,8.43,0,12.58,2.91,13.11,9.28a1.1,1.1,0,0,1-.2.59.83.83,0,0,1-.53.27h-3.49a.77.77,0,0,1-.72-.6c-.79-3.64-2.84-4.84-8.24-4.84-6.06,0-6.78,2.12-6.78,3.71,0,1.93.86,2.52,9,3.58s11.93,2.59,11.93,8.29S164.92,220.66,156.62,220.66Z"/><path class="cls-2" d="M197.86,134.44a.36.36,0,0,0-.16-.31l-9.49-5.53a.46.46,0,0,0-.21,0,.74.74,0,0,0-.18,0l-9.54,5.56s-.13.07-.13.3v11.09a.37.37,0,0,0,.15.31l9.49,5.54a.52.52,0,0,0,.21,0,.47.47,0,0,0,.19,0l9.54-5.56s.13-.07.13-.3Z"/><polygon class="cls-2" points="182.52 136.73 182.52 143.24 188 146.44 193.49 143.24 193.49 136.73 188 133.53 182.52 136.73"/><path d="M65.43,120.11,37.67,103.93a3.79,3.79,0,0,0-1.51-.46H35.9a3,3,0,0,0-1.51.46L6.56,120a3.4,3.4,0,0,0-1.71,3l.07,43.33a1.66,1.66,0,0,0,.85,1.45,1.67,1.67,0,0,0,.85.25,1.37,1.37,0,0,0,.79-.25L24,158.28a3.38,3.38,0,0,0,1.71-2.91V135.1a3.38,3.38,0,0,1,1.71-2.91l7-4.09a3.14,3.14,0,0,1,1.71-.46,2.81,2.81,0,0,1,1.64.46l7,4.09a3.38,3.38,0,0,1,1.71,2.91v20.27a3.37,3.37,0,0,0,1.7,2.91l16.41,9.51a1.65,1.65,0,0,0,.85.25,1.68,1.68,0,0,0,.86-.25,1.66,1.66,0,0,0,.85-1.45V123A3.35,3.35,0,0,0,65.43,120.11Z"/><path class="cls-3" d="M67.86,115.9,40.11,99.73a8.87,8.87,0,0,0-3.35-1.08l-.3,0H35.9A7.79,7.79,0,0,0,32,99.72L4.13,115.84A8.25,8.25,0,0,0,0,123l.07,43.33A6.52,6.52,0,0,0,3.38,172a6.36,6.36,0,0,0,3.24.88,6.17,6.17,0,0,0,3.35-1l16.4-9.43a8.19,8.19,0,0,0,4.14-7.12V136l5.55-3.24L41.61,136v19.39a8.22,8.22,0,0,0,4.14,7.12L62.09,172a6.47,6.47,0,0,0,3.34.93,6.37,6.37,0,0,0,3.25-.88A6.52,6.52,0,0,0,72,166.34V123A8.21,8.21,0,0,0,67.86,115.9Zm-.72,50.44a1.66,1.66,0,0,1-.85,1.45,1.68,1.68,0,0,1-.86.25,1.65,1.65,0,0,1-.85-.25l-16.41-9.51a3.37,3.37,0,0,1-1.7-2.91V135.1a3.38,3.38,0,0,0-1.71-2.91l-7-4.09a2.81,2.81,0,0,0-1.64-.46,3.14,3.14,0,0,0-1.71.46l-7,4.09a3.38,3.38,0,0,0-1.71,2.91v20.27A3.38,3.38,0,0,1,24,158.28L7.41,167.79a1.37,1.37,0,0,1-.79.25,1.67,1.67,0,0,1-.85-.25,1.66,1.66,0,0,1-.85-1.45L4.85,123a3.4,3.4,0,0,1,1.71-3l27.83-16.11a3,3,0,0,1,1.51-.46h.26a3.79,3.79,0,0,1,1.51.46l27.76,16.18a3.35,3.35,0,0,1,1.71,2.9Z"/><path d="M219.21,75.66a3.39,3.39,0,0,0-1.71-3l-16.6-9.31a1.93,1.93,0,0,0-.85-.2,1.63,1.63,0,0,0-.79.2,1.71,1.71,0,0,0-.85,1.45v42.93a1.29,1.29,0,0,1-.6,1.06,1.38,1.38,0,0,1-.59.14,1.45,1.45,0,0,1-.59-.14l-6.95-4a3.39,3.39,0,0,0-1.68-.45,3.35,3.35,0,0,0-1.67.45L158.5,121a3.35,3.35,0,0,0-1.71,2.9v32.3a3.35,3.35,0,0,0,1.71,2.9l27.83,16.18a3.35,3.35,0,0,0,1.67.45,3.39,3.39,0,0,0,1.68-.45l27.82-16.18a3.35,3.35,0,0,0,1.71-2.9Zm-20.87,69.87a.76.76,0,0,1-.39.73l-9.52,5.55a1,1,0,0,1-.43.1,1,1,0,0,1-.42-.1l-9.52-5.55a.83.83,0,0,1-.39-.73V134.44a.76.76,0,0,1,.39-.73l9.52-5.55a1,1,0,0,1,.42-.09,1,1,0,0,1,.43.09l9.52,5.55a.83.83,0,0,1,.39.73Z"/><path class="cls-3" d="M219.9,68.47l-16.63-9.33-.09,0-.1-.05a6.75,6.75,0,0,0-3-.71,6.46,6.46,0,0,0-3.21.84l-.08,0-.09.05a6.57,6.57,0,0,0-3.12,5.56v36.59l-1.44-.83a8.23,8.23,0,0,0-8.17,0l0,0h0l-27.81,16.17a8.22,8.22,0,0,0-4.14,7.11v32.3a8.2,8.2,0,0,0,4.14,7.11l27.81,16.17h0l0,0a8.26,8.26,0,0,0,8.13,0l0,0h0l27.81-16.17a8.22,8.22,0,0,0,4.14-7.11V75.66A8.26,8.26,0,0,0,219.9,68.47Zm-2.4,90.6-27.82,16.18a3.39,3.39,0,0,1-1.68.45,3.35,3.35,0,0,1-1.67-.45L158.5,159.07a3.35,3.35,0,0,1-1.71-2.9v-32.3a3.35,3.35,0,0,1,1.71-2.9l27.83-16.18a3.35,3.35,0,0,1,1.67-.45,3.39,3.39,0,0,1,1.68.45l6.95,4a1.45,1.45,0,0,0,.59.14,1.38,1.38,0,0,0,.59-.14,1.29,1.29,0,0,0,.6-1.06V64.83a1.71,1.71,0,0,1,.85-1.45,1.63,1.63,0,0,1,.79-.2,1.93,1.93,0,0,1,.85.2l16.6,9.31a3.39,3.39,0,0,1,1.71,3v80.51A3.35,3.35,0,0,1,217.5,159.07Z"/><path class="cls-3" d="M198,133.71l-9.52-5.55a1,1,0,0,0-.43-.09,1,1,0,0,0-.42.09l-9.52,5.55a.76.76,0,0,0-.39.73v11.09a.83.83,0,0,0,.39.73l9.52,5.55a1,1,0,0,0,.42.1,1,1,0,0,0,.43-.1l9.52-5.55a.76.76,0,0,0,.39-.73V134.44A.83.83,0,0,0,198,133.71Zm-4.46,9.53-5.49,3.2-5.48-3.2v-6.51l5.48-3.19,5.49,3.19Z"/><path d="M293.5,120.5l-27.63-16.11a3.32,3.32,0,0,0-3.34,0L234.7,120.57a3.37,3.37,0,0,0-1.71,2.91v32.29a3.38,3.38,0,0,0,1.71,2.91l27.63,15.85A3.44,3.44,0,0,0,264,175a3.18,3.18,0,0,0,1.62-.44l16.74-9.38a1.67,1.67,0,0,0,0-2.91l-28-16.18a1.72,1.72,0,0,1-.86-1.45V134.5a1.65,1.65,0,0,1,.86-1.45l8.73-5a1.63,1.63,0,0,1,.85-.24,1.61,1.61,0,0,1,.85.24l8.73,5a1.72,1.72,0,0,1,.86,1.45v7.93a1.63,1.63,0,0,0,.85,1.45,1.56,1.56,0,0,0,.85.25,1.59,1.59,0,0,0,.86-.25l16.53-9.71a3.27,3.27,0,0,0,1.65-2.9v-7.86A3.45,3.45,0,0,0,293.5,120.5Z"/><path class="cls-3" d="M296,116.35l0,0,0,0L268.32,100.2l0,0h0a8.21,8.21,0,0,0-8.14,0h0l-27.81,16.17a8.21,8.21,0,0,0-4.14,7.12v32.29a8.21,8.21,0,0,0,4.17,7.13l27.6,15.84a8.37,8.37,0,0,0,4.08,1.09,8,8,0,0,0,4.05-1.1l16.62-9.31a6.51,6.51,0,0,0,0-11.42l-26.31-15.23v-6.42l5.58-3.21,5.58,3.21v6.08a6.58,6.58,0,0,0,6.56,6.55,6.43,6.43,0,0,0,3.36-.94l16.47-9.66a8.2,8.2,0,0,0,4.06-7.11v-7.86A8.29,8.29,0,0,0,296,116.35Zm-.86,14.92a3.27,3.27,0,0,1-1.65,2.9L277,143.88a1.59,1.59,0,0,1-.86.25,1.56,1.56,0,0,1-.85-.25,1.63,1.63,0,0,1-.85-1.45V134.5a1.72,1.72,0,0,0-.86-1.45l-8.73-5a1.61,1.61,0,0,0-.85-.24,1.63,1.63,0,0,0-.85.24l-8.73,5a1.65,1.65,0,0,0-.86,1.45v10.11a1.72,1.72,0,0,0,.86,1.45l28,16.18a1.67,1.67,0,0,1,0,2.91l-16.74,9.38A3.18,3.18,0,0,1,264,175a3.44,3.44,0,0,1-1.66-.44L234.7,158.68a3.38,3.38,0,0,1-1.71-2.91V123.48a3.37,3.37,0,0,1,1.71-2.91l27.83-16.18a3.32,3.32,0,0,1,3.34,0L293.5,120.5a3.45,3.45,0,0,1,1.65,2.91Z"/><path class="cls-4" d="M263.77,132.66a.57.57,0,0,1,.66,0l5.32,3.1a.7.7,0,0,1,.32.59v6.21a.72.72,0,0,1-.32.6l-5.32,3.1a.61.61,0,0,1-.66,0l-5.31-3.1a.7.7,0,0,1-.33-.6v-6.21a.68.68,0,0,1,.33-.59Z"/><path class="cls-5" d="M113.67,104.52a3.39,3.39,0,0,0-3.35,0l-27.63,16a3.3,3.3,0,0,0-1.64,2.91v32.16a3.44,3.44,0,0,0,1.64,2.9l27.63,16.05a3.34,3.34,0,0,0,3.35,0l27.63-16.05a3.29,3.29,0,0,0,1.64-2.9V123.48a3.43,3.43,0,0,0-1.64-2.91Z"/><path class="cls-6" d="M141.37,120.57l-27.76-16a5.06,5.06,0,0,0-.86-.33L81.64,157.75a3.4,3.4,0,0,0,.92.79l27.76,16.05a3.17,3.17,0,0,0,2.56.33l29.21-53.76A2.11,2.11,0,0,0,141.37,120.57Z"/><path class="cls-7" d="M141.37,158.54a3.71,3.71,0,0,0,1.64-2.11l-30.39-52.31a3.33,3.33,0,0,0-2.36.4l-27.57,16,29.73,54.55a4.52,4.52,0,0,0,1.25-.39Z"/></svg>