<svg id="polymer" xmlns="http://www.w3.org/2000/svg" viewBox="0 0 300 300"><defs><style>.cls-1{fill:#54a4eb;}.cls-2{fill:#f75278;}.cls-3{fill:#0d47a1;}.cls-4{fill:#2c8fe7;}.cls-5{fill:#fa7d99;}.cls-6{fill:#1e88e5;}.cls-7{fill:#2155a8;}.cls-8{fill:#f8688a;}.cls-9{fill:#419be9;}.cls-10{fill:#f52657;}.cls-11{fill:#67aeed;}.cls-12{fill:#f87292;}</style></defs><polygon class="cls-1" points="60 45.78 30 97.89 90 97.89 60 45.78"/><polygon class="cls-2" points="180 45.78 150 97.89 210 97.89 180 45.78"/><polygon class="cls-3" points="240 45.78 210 97.89 270 97.89 240 45.78"/><polygon class="cls-4" points="30 97.89 0 150 60 150 30 97.89"/><polygon class="cls-5" points="150 97.89 120 150 180 150 150 97.89"/><polygon class="cls-6" points="270 97.89 240 150 300 150 270 97.89"/><polygon class="cls-7" points="60 150 30 202.11 90 202.11 60 150"/><polygon class="cls-8" points="120 150 90 202.11 150 202.11 120 150"/><polygon class="cls-9" points="240 150 210 202.11 270 202.11 240 150"/><polygon class="cls-10" points="90 202.11 60 254.22 120 254.22 90 202.11"/><polygon class="cls-11" points="210 202.11 180 254.22 240 254.22 210 202.11"/><polygon class="cls-1" points="240 254.22 270 202.11 210 202.11 240 254.22"/><polygon class="cls-2" points="120 254.22 150 202.11 90 202.11 120 254.22"/><polygon class="cls-3" points="60 254.22 90 202.11 30 202.11 60 254.22"/><polygon class="cls-4" points="270 202.11 300 150 240 150 270 202.11"/><polygon class="cls-12" points="150 202.11 180 150 120 150 150 202.11"/><polygon class="cls-6" points="30 202.11 60 150 0 150 30 202.11"/><polygon class="cls-7" points="240 150 270 97.89 210 97.89 240 150"/><polygon class="cls-8" points="180 150 210 97.89 150 97.89 180 150"/><polygon class="cls-9" points="60 150 90 97.89 30 97.89 60 150"/><polygon class="cls-10" points="210 97.89 240 45.78 180 45.78 210 97.89"/><polygon class="cls-11" points="90 97.89 120 45.78 60 45.78 90 97.89"/></svg>