<svg id="postgresql" xmlns="http://www.w3.org/2000/svg" viewBox="0 0 300 300"><defs><style>.cls-1{fill:#336791;}.cls-2{fill:#fff;}</style></defs><path d="M294.72,179.71a14.77,14.77,0,0,0-12.25-9.88,28.26,28.26,0,0,0-9.78.55,88.08,88.08,0,0,1-15.07,2,290.8,290.8,0,0,0,30.77-73.18c10.21-39.53,4.75-57.53-1.62-65.68C269.89,11.94,245.28.36,215.58,0a125.94,125.94,0,0,0-37,5.18,137.48,137.48,0,0,0-21.63-2C142.66,3,130,6.1,119.26,12.5A171.23,171.23,0,0,0,92.64,5.82c-26-4.28-47-1-62.35,9.89C11.71,28.84,3.1,51.64,4.69,83.48c.51,10.11,6.17,40.88,15.07,70.05,5.12,16.77,10.58,30.7,16.22,41.4,8,15.17,16.58,24.1,26.19,27.31,5.39,1.8,15.19,3,25.49-5.53A22.24,22.24,0,0,0,93,221.33a35.9,35.9,0,0,0,10.11,4.26c12.92,3.23,25,2.42,35.35-2.11.07,1.84.12,3.59.16,5.11.07,2.46.13,4.87.22,7.12.62,15.24,1.65,27.09,4.72,35.38.17.45.4,1.15.64,1.88,1.53,4.7,4.09,12.55,10.61,18.7,6.75,6.38,14.92,8.33,22.4,8.33a50.52,50.52,0,0,0,10.47-1.16c11.19-2.4,23.89-6.06,33.09-19.15,8.69-12.37,12.91-31,13.68-60.37.1-.83.19-1.63.28-2.38l.18-1.55,2,.18.52,0c11.4.52,25.33-1.89,33.89-5.87,6.76-3.14,28.43-14.58,23.33-30"/><path class="cls-1" d="M275.24,182.71c-33.89,7-36.22-4.48-36.22-4.48,35.78-53.09,50.73-120.48,37.83-137-35.21-45-96.16-23.71-97.18-23.16l-.33.06a121,121,0,0,0-22.61-2.36c-15.33-.25-27,4-35.79,10.72,0,0-108.73-44.8-103.67,56.33C18.35,104.37,48.11,245.64,83.6,203c13-15.6,25.51-28.8,25.51-28.8a32.89,32.89,0,0,0,21.5,5.49l.61-.51a23.39,23.39,0,0,0,.24,6.07c-9.15,10.22-6.46,12-24.74,15.77-18.5,3.82-7.63,10.6-.54,12.38,8.61,2.15,28.5,5.2,41.95-13.63l-.54,2.15c3.59,2.87,6.1,18.67,5.68,33s-.7,24.15,2.12,31.83,5.64,25,29.67,19.81c20.08-4.3,30.48-15.45,31.93-34.06,1-13.22,3.35-11.27,3.5-23.09l1.87-5.6c2.15-17.92.34-23.7,12.71-21l3,.26c9.1.41,21-1.47,28-4.72,15.06-7,24-18.66,9.14-15.59h0"/><path class="cls-2" d="M127.31,92.47c-3-.42-5.82,0-7.22,1A2.65,2.65,0,0,0,119,95.26a5.13,5.13,0,0,0,1.24,3.37,9.49,9.49,0,0,0,6,3.74,7.73,7.73,0,0,0,1,.07c3.7,0,7.06-2.88,7.36-5,.37-2.66-3.49-4.43-7.24-5m101.16.09c-.29-2.09-4-2.68-7.53-2.19s-6.93,2.08-6.64,4.17c.23,1.62,3.16,4.4,6.64,4.4a6.77,6.77,0,0,0,.89-.06,8.61,8.61,0,0,0,4.83-2.65c1.23-1.29,1.94-2.73,1.81-3.67"/><path class="cls-2" d="M286.51,181.92c-1.29-3.91-5.45-5.17-12.36-3.74-20.51,4.23-27.86,1.3-30.27-.48,15.94-24.29,29.06-53.65,36.14-81,3.35-13,5.2-25,5.35-34.85.17-10.79-1.67-18.71-5.45-23.55C264.65,18.74,242.24,8.27,215.11,8c-18.65-.21-34.41,4.56-37.47,5.9a93.57,93.57,0,0,0-21.08-2.71c-14-.22-26.1,3.13-36.12,10a161.46,161.46,0,0,0-29.36-7.7C67.3,9.62,48.4,12.52,34.92,22.07,18.83,33.47,11.4,53.85,12.84,82.64c.48,9.69,6,39.48,14.71,68,11.46,37.56,23.93,58.82,37,63.2a16.59,16.59,0,0,0,5.25.86c4.79,0,10.65-2.15,16.75-9.49q11.18-13.38,23.09-26.12a37.21,37.21,0,0,0,16.61,4.47c0,.15,0,.3,0,.45q-1.5,1.78-2.93,3.62c-4,5.09-4.85,6.15-17.77,8.81-3.67.76-13.43,2.77-13.57,9.61-.16,7.48,11.53,10.62,12.87,11a55.18,55.18,0,0,0,13.37,1.74,38.93,38.93,0,0,0,26.8-10c-.23,26.65.88,52.9,4.08,60.9,2.62,6.55,9,22.56,29.24,22.56a47,47,0,0,0,9.83-1.12c21.1-4.52,30.27-13.85,33.81-34.41,1.9-11,5.15-37.23,6.68-51.31a41.41,41.41,0,0,0,11.89,1.47c9.38,0,20.21-2,27-5.14,7.63-3.55,21.39-12.23,18.89-19.78ZM236.26,86.8A85,85,0,0,1,235,98.67a110,110,0,0,0-1.5,13.92,106,106,0,0,0,1.11,15.76c1.26,10.5,2.55,21.32-2.46,32a41,41,0,0,1-2.22-4.57c-.63-1.51-2-3.94-3.85-7.3-7.29-13.07-24.37-43.69-15.63-56.19,2.61-3.72,9.21-7.54,25.8-5.48ZM216.15,16.4c24.31.54,43.54,9.63,57.15,27,10.45,13.34-1.05,74.05-34.34,126.43l-1-1.27-.42-.53c8.6-14.2,6.92-28.25,5.42-40.72a98,98,0,0,1-1-14.48,101.43,101.43,0,0,1,1.4-12.92,81.35,81.35,0,0,0,1.31-16,6.65,6.65,0,0,0,.14-2.25c-.54-5.75-7.1-23-20.48-38.53A92.38,92.38,0,0,0,191.72,18.7a109.92,109.92,0,0,1,24.43-2.3Zm-136,183.46c-6.73,8.09-11.37,6.54-12.89,6-10-3.32-21.49-24.34-31.67-57.68-8.8-28.85-13.95-57.86-14.36-66-1.28-25.72,5-43.65,18.54-53.29,22.11-15.68,58.46-6.29,73.06-1.53-.21.2-.43.4-.63.61-24,24.2-23.4,65.56-23.35,68.09,0,1,.08,2.35.2,4.25a171.42,171.42,0,0,1-.87,34.57A43.68,43.68,0,0,0,99.69,171.5a37.65,37.65,0,0,0,3,2.81c-4.11,4.4-13,14.13-22.53,25.55Zm25.61-34.17a35.37,35.37,0,0,1-9.27-29.61,178.51,178.51,0,0,0,.94-36.22c-.06-1-.12-1.91-.15-2.61,3.51-3.1,19.73-11.8,31.3-9.14,5.28,1.21,8.5,4.8,9.84,11,6.92,32,.91,45.36-3.91,56.09-1,2.21-1.94,4.29-2.74,6.45l-.62,1.68a108.36,108.36,0,0,0-3.95,11.87,29.88,29.88,0,0,1-21.44-9.5ZM107,208.87a18.41,18.41,0,0,1-5.6-2.4,26.9,26.9,0,0,1,6-1.78c15.19-3.13,17.54-5.34,22.67-11.85,1.17-1.49,2.5-3.18,4.35-5.24h0c2.75-3.08,4-2.56,6.28-1.61,1.85.76,3.65,3.08,4.38,5.63a6.27,6.27,0,0,1-.54,5.26C133.77,211.87,118.17,211.68,107,208.87Zm79.53,74c-18.59,4-25.17-5.5-29.51-16.35-2.8-7-4.18-38.56-3.2-73.43a4.19,4.19,0,0,0-.18-1.33,17.07,17.07,0,0,0-.52-2.46c-1.45-5.08-5-9.32-9.23-11.08a13,13,0,0,0-8.5-1A103.21,103.21,0,0,1,139,166.25l.62-1.68c.71-1.9,1.59-3.86,2.52-5.94,5.06-11.22,12-26.59,4.47-61.31-2.82-13-12.21-19.35-26.44-17.88a61,61,0,0,0-20.24,6.3c-.84.43-1.6.84-2.32,1.23,1.09-13.1,5.19-37.59,20.56-53.08,9.67-9.75,22.55-14.57,38.24-14.31,30.93.51,50.76,16.38,62,29.6a94.19,94.19,0,0,1,16.95,29.07c-15.68-1.6-26.33,1.5-31.74,9.22-11.75,16.8,6.43,49.42,15.17,65.09,1.61,2.88,3,5.36,3.43,6.41a58,58,0,0,0,9.22,14.87c.82,1,1.62,2,2.23,2.9-4.75,1.37-13.27,4.53-12.5,20.33-.62,7.93-5.08,45.06-7.34,58.18-3,17.33-9.37,23.79-27.3,27.63Zm77.6-88.8c-4.86,2.25-13,3.94-20.69,4.31-8.53.39-12.87-1-13.89-1.79-.48-9.85,3.19-10.88,7.07-12,.61-.17,1.2-.34,1.78-.54a14.19,14.19,0,0,0,1.17.86c6.85,4.52,19.07,5,36.32,1.45l.19,0a46.38,46.38,0,0,1-12,7.72Z"/></svg>