<svg id="python" xmlns="http://www.w3.org/2000/svg" xmlns:xlink="http://www.w3.org/1999/xlink" viewBox="0 0 300 300"><defs><style>.cls-1{fill:url(#linear-gradient);}.cls-2{fill:url(#linear-gradient-2);}</style><linearGradient id="linear-gradient" x1="1.01" y1="300.99" x2="1.09" y2="300.91" gradientTransform="matrix(1849.27, 0, 0, -1853.39, -1846.85, 557872.6)" gradientUnits="userSpaceOnUse"><stop offset="0" stop-color="#387eb8"/><stop offset="1" stop-color="#366994"/></linearGradient><linearGradient id="linear-gradient-2" x1="0.71" y1="301.27" x2="0.8" y2="301.19" gradientTransform="matrix(1849.27, 0, 0, -1853.39, -1202.39, 558500.06)" gradientUnits="userSpaceOnUse"><stop offset="0" stop-color="#ffe052"/><stop offset="1" stop-color="#ffc331"/></linearGradient></defs><path class="cls-1" d="M148.92.78c-76.16,0-71.4,33-71.4,33L77.6,68h72.68V78.3H48.73S0,72.77,0,149.61s42.54,74.12,42.54,74.12H67.92V188.07s-1.37-42.53,41.86-42.53h72.08s40.5.65,40.5-39.14V40.6S228.51.78,148.92.78Zm-40.07,23a13.06,13.06,0,0,1,13.07,13.05v0a13.07,13.07,0,0,1-13,13.08h0a13.07,13.07,0,0,1-13.08-13v0a13.06,13.06,0,0,1,13-13.07Z"/><path class="cls-2" d="M151.08,299.22c76.16,0,71.41-33,71.41-33L222.4,232H149.72V221.7H251.27S300,227.23,300,150.39s-42.54-74.12-42.54-74.12H232.08v35.65s1.37,42.54-41.86,42.54H118.14s-40.5-.65-40.5,39.14v65.8s-6.15,39.82,73.44,39.82Zm40.08-23a13.06,13.06,0,0,1-13.08-13v0a13.07,13.07,0,0,1,13-13.08h0a13.07,13.07,0,0,1,13.07,13.05v0a13.06,13.06,0,0,1-13,13.07Z"/></svg>